<svg width="462" height="403" viewBox="0 0 462 403" fill="none" xmlns="http://www.w3.org/2000/svg">
<path opacity="0.4" d="M211.935 178.854C211.935 180.176 210.857 181.254 209.535 181.254C208.213 181.254 207.135 180.176 207.135 178.854C207.135 177.533 208.213 176.454 209.535 176.454C210.857 176.454 211.935 177.533 211.935 178.854Z" fill="#172F78"/>
<path opacity="0.6" d="M68.9883 88.7263C68.9883 90.6859 67.3932 92.281 65.4336 92.281C63.474 92.281 61.8789 90.6859 61.8789 88.7263C61.8789 86.7667 63.474 85.1716 65.4336 85.1716C67.3932 85.1716 68.9883 86.7515 68.9883 88.7263Z" fill="#172F78"/>
<path opacity="0.8" d="M66.907 88.7265C66.907 89.5468 66.2538 90.2 65.4335 90.2C64.6132 90.2 63.96 89.5468 63.96 88.7265C63.96 87.9061 64.6132 87.2529 65.4335 87.2529C66.2538 87.2529 66.907 87.9061 66.907 88.7265Z" fill="#172F78"/>
<path opacity="0.4" d="M246.934 143.444C246.934 148.685 242.681 152.939 237.44 152.939C232.199 152.939 227.945 148.685 227.945 143.444C227.945 138.203 232.199 133.95 237.44 133.95C242.681 133.95 246.934 138.203 246.934 143.444Z" fill="#172F78"/>
<path opacity="0.8" d="M237.425 147.394C239.607 147.394 241.375 145.625 241.375 143.444C241.375 141.263 239.607 139.494 237.425 139.494C235.244 139.494 233.476 141.263 233.476 143.444C233.476 145.625 235.244 147.394 237.425 147.394Z" fill="#172F78"/>
<path d="M258.389 212.305L236.879 142.973L413.155 167.658L413.033 168.433L237.988 143.915L259.134 212.062L258.389 212.305Z" fill="#172F78"/>
<path d="M450.434 234.954H449.613V250.981H450.434V234.954Z" fill="#172F78"/>
<path d="M450.434 254.748H449.613V259.882H450.434V254.748Z" fill="#03A7D3"/>
<path d="M57.7627 222.938H56.9424V238.965H57.7627V222.938Z" fill="#03A7D3"/>
<path d="M57.7627 242.656H56.9424V247.229H57.7627V242.656Z" fill="#172F78"/>
<path d="M57.7627 251.072H56.9424V255.645H57.7627V251.072Z" fill="#172F78"/>
<path d="M167.699 24.0278H166.879V40.0543H167.699V24.0278Z" fill="#172F78"/>
<path d="M167.699 43.7458H166.879V48.3183H167.699V43.7458Z" fill="#03A7D3"/>
<path d="M167.699 52.1616H166.879V56.7341H167.699V52.1616Z" fill="#03A7D3"/>
<path d="M167.699 60.5774H166.879V73.5657H167.699V60.5774Z" fill="#03A7D3"/>
<path d="M461.946 161.658H461.126V166.793H461.946V161.658Z" fill="#172F78"/>
<path d="M461.946 141.879H461.126V157.906H461.946V141.879Z" fill="#03A7D3"/>
<path d="M461.946 120.855H461.126V137.109H461.946V120.855Z" fill="#172F78"/>
<path d="M461.946 96.7168H461.126V112.971H461.946V96.7168Z" fill="#172F78"/>
<path opacity="0.4" d="M83.7087 82.3614C88.6418 82.3614 92.6409 78.3623 92.6409 73.4291C92.6409 68.4959 88.6418 64.4968 83.7087 64.4968C78.7755 64.4968 74.7764 68.4959 74.7764 73.4291C74.7764 78.3623 78.7755 82.3614 83.7087 82.3614Z" fill="#03A7D3"/>
<path opacity="0.8" d="M83.7085 77.8192C86.1332 77.8192 88.0987 75.8536 88.0987 73.429C88.0987 71.0044 86.1332 69.0388 83.7085 69.0388C81.2839 69.0388 79.3184 71.0044 79.3184 73.429C79.3184 75.8536 81.2839 77.8192 83.7085 77.8192Z" fill="#03A7D3"/>
<path opacity="0.4" d="M149.607 335.382C149.607 338.709 146.903 341.413 143.576 341.413C140.249 341.413 137.545 338.709 137.545 335.382C137.545 332.055 140.249 329.351 143.576 329.351C146.903 329.366 149.607 332.055 149.607 335.382Z" fill="#03A7D3"/>
<path opacity="0.8" d="M143.575 338.344C145.211 338.344 146.537 337.018 146.537 335.382C146.537 333.746 145.211 332.419 143.575 332.419C141.939 332.419 140.612 333.746 140.612 335.382C140.612 337.018 141.939 338.344 143.575 338.344Z" fill="#03A7D3"/>
<path opacity="0.4" d="M363.982 269.575C367.447 269.575 370.256 266.766 370.256 263.301C370.256 259.836 367.447 257.027 363.982 257.027C360.517 257.027 357.708 259.836 357.708 263.301C357.708 266.766 360.517 269.575 363.982 269.575Z" fill="#03A7D3"/>
<path opacity="0.8" d="M363.981 266.384C365.684 266.384 367.065 265.004 367.065 263.301C367.065 261.597 365.684 260.217 363.981 260.217C362.278 260.217 360.897 261.597 360.897 263.301C360.897 265.004 362.278 266.384 363.981 266.384Z" fill="#03A7D3"/>
<path opacity="0.4" d="M204.765 129.377C204.765 132.066 202.593 134.239 199.904 134.239C197.215 134.239 195.043 132.066 195.043 129.377C195.043 126.689 197.215 124.516 199.904 124.516C202.593 124.516 204.765 126.689 204.765 129.377Z" fill="#03A7D3"/>
<path opacity="0.8" d="M199.904 131.762C201.221 131.762 202.289 130.694 202.289 129.377C202.289 128.06 201.221 126.992 199.904 126.992C198.586 126.992 197.519 128.06 197.519 129.377C197.519 130.694 198.586 131.762 199.904 131.762Z" fill="#03A7D3"/>
<path opacity="0.4" d="M364.117 180.495C364.117 181.315 363.464 181.968 362.643 181.968C361.823 181.968 361.17 181.315 361.17 180.495C361.17 179.674 361.823 179.021 362.643 179.021C363.449 179.021 364.117 179.69 364.117 180.495Z" fill="#03A7D3"/>
<path opacity="0.4" d="M163.491 298.924C163.491 299.744 162.838 300.397 162.017 300.397C161.197 300.397 160.544 299.744 160.544 298.924C160.544 298.103 161.197 297.45 162.017 297.45C162.823 297.45 163.491 298.103 163.491 298.924Z" fill="#03A7D3"/>
<path opacity="0.4" d="M138.684 248.444C207.127 248.444 262.612 192.96 262.612 124.516C262.612 56.0728 207.127 0.588379 138.684 0.588379C70.2402 0.588379 14.7559 56.0728 14.7559 124.516C14.7559 192.96 70.2402 248.444 138.684 248.444Z" fill="url(#paint0_radial_185_5547)"/>
<path d="M253.057 254.05C250.079 254.05 247.087 253.396 244.823 252.09L189.407 220.098C187.113 218.776 185.837 216.969 185.837 215.039C185.837 213.11 187.098 211.318 189.407 209.981L244.535 177.928C249.077 175.3 256.475 175.3 261.017 177.928L316.434 209.92C318.727 211.242 320.003 213.049 320.003 214.979C320.003 216.908 318.743 218.716 316.434 220.037L261.306 252.09C259.027 253.396 256.034 254.05 253.057 254.05ZM252.768 176.971C249.973 176.971 247.178 177.578 245.036 178.809L189.908 210.862C187.933 212.001 186.855 213.475 186.855 215.024C186.855 216.574 187.933 218.047 189.908 219.186L245.325 251.179C249.593 253.64 256.52 253.64 260.774 251.179L315.902 219.126C317.877 217.986 318.955 216.513 318.955 214.963C318.955 213.414 317.877 211.94 315.902 210.801L260.485 178.809C258.359 177.594 255.563 176.971 252.768 176.971Z" fill="#03A7D3"/>
<path d="M319.745 197.494L319.73 170.925L286.158 175.406L261.017 160.884C256.612 158.332 249.457 158.332 245.051 160.884L241.132 163.375L186.627 170.652V197.54C186.627 197.555 186.627 197.57 186.627 197.585V197.707H186.642C186.703 199.332 187.781 200.942 189.923 202.173L245.34 234.165C249.745 236.717 256.9 236.717 261.306 234.165L316.434 202.112C318.56 200.882 319.639 199.271 319.715 197.661H319.745V197.494Z" fill="url(#paint1_linear_185_5547)"/>
<path d="M316.433 166.109L261.017 134.117C256.611 131.565 249.457 131.565 245.051 134.117L189.923 166.17C185.518 168.722 185.518 172.839 189.923 175.391L245.34 207.383C249.745 209.935 256.9 209.935 261.305 207.383L316.433 175.33C320.839 172.793 320.839 168.661 316.433 166.109Z" fill="url(#paint2_radial_185_5547)"/>
<path d="M316.434 173.72L261.306 205.773C256.901 208.325 249.746 208.325 245.34 205.773L189.924 173.781C188.07 172.718 187.007 171.366 186.718 169.983C186.308 171.912 187.372 173.918 189.924 175.391L245.34 207.383C249.746 209.935 256.901 209.935 261.306 207.383L316.434 175.33C319.001 173.857 320.065 171.836 319.639 169.922C319.351 171.305 318.287 172.657 316.434 173.72Z" fill="white"/>
<path d="M268.764 214.477L266.136 215.996V212.958L268.764 211.454V214.477Z" fill="white"/>
<path d="M274.248 211.302L271.62 212.821V209.798L274.248 208.279V211.302Z" fill="white"/>
<path d="M279.732 208.143L277.119 209.647V206.624L279.732 205.104V208.143Z" fill="white"/>
<path d="M275.25 216.863L272.622 218.382V215.359L275.25 213.84V216.863Z" fill="white"/>
<path d="M280.081 214.082L277.453 215.586V212.563L280.081 211.044V214.082Z" fill="white"/>
<path d="M297.338 197.98L294.726 199.484V196.461L297.338 194.942V197.98Z" fill="white"/>
<path d="M312.453 189.245L309.84 190.764V187.726L312.453 186.222V189.245Z" fill="white"/>
<path d="M285.231 204.968L282.603 206.487V203.449L285.231 201.945V204.968Z" fill="white"/>
<path opacity="0.4" d="M250.049 193.863L212.756 172.337C211.237 171.456 211.434 169.937 213.181 168.919L249.609 147.88C251.356 146.862 253.999 146.756 255.518 147.637L292.797 169.162C294.316 170.043 294.118 171.562 292.371 172.58L255.944 193.62C254.212 194.637 251.553 194.744 250.049 193.863Z" fill="#06033E"/>
<path d="M235.375 217.166L204.613 199.408C203.884 198.983 203.276 197.843 203.276 196.871V194.592C203.276 193.62 203.869 193.164 204.613 193.59L235.375 211.348C236.104 211.773 236.712 212.913 236.712 213.885V216.164C236.712 217.136 236.104 217.591 235.375 217.166Z" fill="white"/>
<path d="M319.745 147.637L319.73 121.068L286.158 125.549L261.017 111.027C256.612 108.475 249.457 108.475 245.051 111.027L241.132 113.518L186.627 120.795V147.667C186.627 147.683 186.627 147.698 186.627 147.713V147.835H186.642C186.703 149.46 187.781 151.07 189.923 152.301L245.34 184.293C249.745 186.845 256.9 186.845 261.306 184.293L316.434 152.24C318.56 151.009 319.639 149.399 319.715 147.789H319.745V147.637Z" fill="url(#paint3_linear_185_5547)"/>
<path d="M316.433 116.268L261.017 84.2754C256.611 81.7233 249.457 81.7233 245.051 84.2754L189.923 116.328C185.518 118.88 185.518 122.997 189.923 125.549L245.34 157.541C249.745 160.093 256.9 160.093 261.305 157.541L316.433 125.488C320.839 122.936 320.839 118.82 316.433 116.268Z" fill="url(#paint4_radial_185_5547)"/>
<path opacity="0.4" d="M290.031 118.197L257.735 99.5575C255.168 98.0687 251.006 98.0687 248.439 99.5575L216.325 118.227C213.758 119.716 213.758 122.116 216.325 123.605L248.621 142.244C251.188 143.733 255.35 143.733 257.933 142.244L290.047 123.574C292.599 122.086 292.599 119.685 290.031 118.197Z" fill="#06033E"/>
<path d="M316.434 123.879L261.306 155.931C256.901 158.484 249.746 158.484 245.34 155.931L189.924 123.939C188.07 122.876 187.007 121.524 186.718 120.142C186.308 122.071 187.372 124.076 189.924 125.55L245.34 157.542C249.746 160.094 256.901 160.094 261.306 157.542L316.434 125.489C319.001 124.015 320.065 121.995 319.639 120.081C319.351 121.463 318.287 122.815 316.434 123.879Z" fill="white"/>
<path d="M268.764 164.636L266.136 166.14V163.117L268.764 161.598V164.636Z" fill="white"/>
<path d="M274.248 161.461L271.62 162.98V159.942L274.248 158.438V161.461Z" fill="white"/>
<path d="M279.732 158.301L277.119 159.805V156.782L279.732 155.263V158.301Z" fill="white"/>
<path d="M275.25 167.021L272.622 168.54V165.501L275.25 163.998V167.021Z" fill="white"/>
<path d="M280.081 164.226L277.453 165.745V162.722L280.081 161.203V164.226Z" fill="white"/>
<path d="M297.338 148.123L294.726 149.642V146.619L297.338 145.1V148.123Z" fill="white"/>
<path d="M312.453 139.404L309.84 140.923V137.885L312.453 136.365V139.404Z" fill="white"/>
<path d="M285.231 155.126L282.603 156.645V153.607L285.231 152.103V155.126Z" fill="white"/>
<path d="M319.745 97.7955L319.73 71.2265L286.158 75.7079L261.017 61.1853C256.612 58.6332 249.457 58.6332 245.051 61.1853L241.132 63.6766L186.627 70.9531V97.8259C186.627 97.8411 186.627 97.8563 186.627 97.8715V97.993H186.642C186.703 99.6184 187.781 101.229 189.923 102.459L245.34 134.451C249.745 137.003 256.9 137.003 261.306 134.451L316.434 102.398C318.56 101.168 319.639 99.5577 319.715 97.9474H319.745V97.7955Z" fill="url(#paint5_linear_185_5547)"/>
<path d="M316.433 66.426L261.017 34.4338C256.611 31.8818 249.457 31.8818 245.051 34.4338L189.923 66.4868C185.518 69.0388 185.518 73.1556 189.923 75.7077L245.34 107.7C249.745 110.252 256.9 110.252 261.305 107.7L316.433 75.6469C320.839 73.0948 320.839 68.9629 316.433 66.426Z" fill="url(#paint6_radial_185_5547)"/>
<path d="M316.434 74.0368L261.306 106.09C256.901 108.642 249.746 108.642 245.34 106.09L189.924 74.0975C188.07 73.0342 187.007 71.6822 186.718 70.2998C186.308 72.229 187.372 74.2342 189.924 75.7078L245.34 107.7C249.746 110.252 256.901 110.252 261.306 107.7L316.434 75.647C319.001 74.1735 320.065 72.1531 319.639 70.239C319.351 71.6214 318.287 72.9582 316.434 74.0368Z" fill="white"/>
<path d="M268.764 114.779L266.136 116.298V113.275L268.764 111.756V114.779Z" fill="white"/>
<path d="M274.248 111.619L271.62 113.138V110.1L274.248 108.581V111.619Z" fill="white"/>
<path d="M279.732 108.444L277.119 109.963V106.94L279.732 105.421V108.444Z" fill="white"/>
<path d="M275.25 117.179L272.622 118.698V115.66L275.25 114.141V117.179Z" fill="white"/>
<path d="M280.081 114.384L277.453 115.903V112.88L280.081 111.361V114.384Z" fill="white"/>
<path d="M297.338 98.2815L294.726 99.8006V96.7776L297.338 95.2585V98.2815Z" fill="white"/>
<path d="M312.453 89.5619L309.84 91.0658V88.0428L312.453 86.5237V89.5619Z" fill="white"/>
<path d="M285.231 105.285L282.603 106.789V103.766L285.231 102.247V105.285Z" fill="white"/>
<path d="M155.029 310.773C152.036 310.773 149.059 310.119 146.78 308.813L91.3785 276.806C89.0846 275.484 87.8086 273.676 87.8086 271.747C87.8086 269.818 89.0694 268.01 91.3785 266.688L146.506 234.636C151.049 232.008 158.447 232.008 162.989 234.636L218.405 266.628C220.699 267.949 221.975 269.757 221.975 271.686C221.975 273.616 220.714 275.423 218.405 276.745L163.277 308.798C160.999 310.104 158.021 310.773 155.029 310.773ZM154.74 233.679C151.945 233.679 149.15 234.301 147.008 235.517L91.8798 267.57C89.9049 268.709 88.8264 270.182 88.8264 271.732C88.8264 273.281 89.9049 274.755 91.8798 275.894L147.296 307.886C151.565 310.347 158.492 310.347 162.746 307.886L217.874 275.833C219.848 274.694 220.927 273.221 220.927 271.671C220.927 270.122 219.848 268.648 217.874 267.509L162.457 235.517C160.33 234.301 157.535 233.679 154.74 233.679Z" fill="#03A7D3"/>
<path d="M221.716 254.202L221.701 227.633L188.129 232.114L162.988 217.592C158.582 215.04 151.427 215.04 147.022 217.592L143.103 220.083L88.5977 227.36V254.232C88.5977 254.248 88.5977 254.263 88.5977 254.278V254.399H88.6128C88.6736 256.025 89.7522 257.635 91.8941 258.866L147.311 290.858C151.716 293.41 158.871 293.41 163.276 290.858L218.404 258.805C220.531 257.574 221.61 255.964 221.686 254.354H221.716V254.202Z" fill="url(#paint7_linear_185_5547)"/>
<path d="M218.404 222.817L162.988 190.825C158.582 188.273 151.427 188.273 147.022 190.825L91.8939 222.878C87.4885 225.43 87.4885 229.547 91.8939 232.099L147.31 264.091C151.716 266.643 158.871 266.643 163.276 264.091L218.404 232.038C222.825 229.501 222.825 225.369 218.404 222.817Z" fill="url(#paint8_radial_185_5547)"/>
<path d="M218.405 230.428L163.277 262.481C158.871 265.033 151.716 265.033 147.311 262.481L91.8944 230.489C90.0411 229.425 88.9777 228.074 88.6891 226.691C88.2789 228.62 89.3423 230.626 91.8944 232.099L147.311 264.091C151.716 266.643 158.871 266.643 163.277 264.091L218.405 232.038C220.972 230.565 222.035 228.544 221.61 226.63C221.321 228.013 220.258 229.365 218.405 230.428Z" fill="white"/>
<path d="M170.734 271.185L168.106 272.704V269.681L170.734 268.162V271.185Z" fill="white"/>
<path d="M176.218 268.025L173.605 269.529V266.506L176.218 264.987V268.025Z" fill="white"/>
<path d="M181.718 264.851L179.09 266.37V263.332L181.718 261.828V264.851Z" fill="white"/>
<path d="M177.221 273.586L174.608 275.089V272.066L177.221 270.547V273.586Z" fill="white"/>
<path d="M182.051 270.791L179.438 272.31V269.271L182.051 267.768V270.791Z" fill="white"/>
<path d="M199.324 254.688L196.696 256.207V253.169L199.324 251.665V254.688Z" fill="white"/>
<path d="M214.439 245.953L211.811 247.472V244.449L214.439 242.93V245.953Z" fill="white"/>
<path d="M187.201 261.676L184.573 263.195V260.172L187.201 258.653V261.676Z" fill="white"/>
<path opacity="0.4" d="M152.022 250.586L114.743 229.06C113.224 228.179 113.421 226.66 115.168 225.642L151.596 204.603C153.343 203.585 155.986 203.479 157.505 204.36L194.784 225.885C196.303 226.766 196.106 228.286 194.359 229.303L157.931 250.343C156.184 251.345 153.541 251.452 152.022 250.586Z" fill="#06033E"/>
<path d="M137.348 273.874L106.586 256.115C105.857 255.69 105.249 254.551 105.249 253.578V251.3C105.249 250.328 105.841 249.872 106.586 250.297L137.348 268.055C138.077 268.481 138.684 269.62 138.684 270.592V272.871C138.684 273.858 138.092 274.299 137.348 273.874Z" fill="white"/>
<path d="M221.716 204.36L221.701 177.791L188.129 182.273L162.988 167.75C158.582 165.198 151.427 165.198 147.022 167.75L143.103 170.241L88.5977 177.518V204.406C88.5977 204.421 88.5977 204.436 88.5977 204.451V204.573H88.6128C88.6736 206.198 89.7522 207.809 91.8941 209.039L147.311 241.031C151.716 243.583 158.871 243.583 163.276 241.031L218.404 208.978C220.531 207.748 221.61 206.138 221.686 204.527H221.716V204.36Z" fill="url(#paint9_linear_185_5547)"/>
<path d="M218.404 172.976L162.988 140.983C158.582 138.431 151.427 138.431 147.022 140.983L91.8939 173.036C87.4885 175.588 87.4885 179.705 91.8939 182.257L147.31 214.249C151.716 216.801 158.871 216.801 163.276 214.249L218.404 182.196C222.825 179.66 222.825 175.528 218.404 172.976Z" fill="url(#paint10_radial_185_5547)"/>
<path opacity="0.4" d="M192.018 174.92L159.722 156.281C157.154 154.792 152.992 154.792 150.425 156.281L118.311 174.95C115.744 176.439 115.744 178.839 118.311 180.328L150.607 198.967C153.174 200.456 157.337 200.456 159.919 198.967L192.033 180.298C194.585 178.809 194.585 176.393 192.018 174.92Z" fill="#06033E"/>
<path d="M218.405 180.586L163.277 212.639C158.871 215.191 151.716 215.191 147.311 212.639L91.8944 180.647C90.0411 179.584 88.9777 178.232 88.6891 176.849C88.2789 178.779 89.3423 180.784 91.8944 182.257L147.311 214.249C151.716 216.802 158.871 216.802 163.277 214.249L218.405 182.197C220.972 180.723 222.035 178.703 221.61 176.789C221.321 178.171 220.258 179.523 218.405 180.586Z" fill="white"/>
<path d="M170.734 221.343L168.106 222.862V219.824L170.734 218.32V221.343Z" fill="white"/>
<path d="M176.218 218.168L173.605 219.688V216.665L176.218 215.146V218.168Z" fill="white"/>
<path d="M181.718 215.009L179.09 216.528V213.49L181.718 211.971V215.009Z" fill="white"/>
<path d="M177.221 223.729L174.608 225.248V222.225L177.221 220.706V223.729Z" fill="white"/>
<path d="M182.051 220.948L179.438 222.452V219.429L182.051 217.91V220.948Z" fill="white"/>
<path d="M199.324 204.846L196.696 206.35V203.327L199.324 201.808V204.846Z" fill="white"/>
<path d="M214.439 196.111L211.811 197.63V194.592L214.439 193.088V196.111Z" fill="white"/>
<path d="M187.201 211.834L184.573 213.353V210.33L187.201 208.811V211.834Z" fill="white"/>
<path d="M221.716 154.519L221.701 127.95L188.129 132.431L162.988 117.908C158.582 115.356 151.427 115.356 147.022 117.908L143.103 120.4L88.5977 127.676V154.549C88.5977 154.564 88.5977 154.579 88.5977 154.595V154.716H88.6128C88.6736 156.342 89.7522 157.952 91.8941 159.182L147.311 191.174C151.716 193.727 158.871 193.727 163.276 191.174L218.404 159.122C220.531 157.891 221.61 156.281 221.686 154.671H221.716V154.519Z" fill="url(#paint11_linear_185_5547)"/>
<path d="M218.404 123.134L162.988 91.1418C158.582 88.5898 151.427 88.5898 147.022 91.1418L91.8939 123.195C87.4885 125.747 87.4885 129.864 91.8939 132.416L147.31 164.408C151.716 166.96 158.871 166.96 163.276 164.408L218.404 132.355C222.825 129.803 222.825 125.686 218.404 123.134Z" fill="url(#paint12_radial_185_5547)"/>
<path d="M218.404 123.134L162.988 91.1418C158.582 88.5898 151.427 88.5898 147.022 91.1418L91.8939 123.195C87.4885 125.747 87.4885 129.864 91.8939 132.416L147.31 164.408C151.716 166.96 158.871 166.96 163.276 164.408L218.404 132.355C222.825 129.803 222.825 125.686 218.404 123.134Z" fill="url(#paint13_radial_185_5547)"/>
<path d="M155.256 154.048C153.22 154.048 151.184 153.592 149.605 152.68L112.888 131.474C111.247 130.517 110.336 129.225 110.336 127.798C110.336 126.37 111.247 125.063 112.888 124.121L149.407 102.884C152.582 101.046 157.534 101.061 160.709 102.884L197.426 124.091C199.066 125.048 199.978 126.339 199.978 127.767C199.978 129.195 199.066 130.502 197.426 131.443L160.907 152.68C159.327 153.577 157.291 154.048 155.256 154.048ZM155.058 102.945C153.266 102.945 151.488 103.34 150.121 104.115L113.602 125.367C112.417 126.051 111.764 126.916 111.764 127.798C111.764 128.679 112.417 129.544 113.602 130.228L150.319 151.419C153.038 152.984 157.458 152.984 160.177 151.419L196.697 130.183C197.881 129.499 198.535 128.633 198.535 127.752C198.535 126.871 197.881 126.005 196.697 125.321L159.98 104.115C158.628 103.34 156.851 102.945 155.058 102.945Z" fill="#8B1E64"/>
<path d="M218.404 130.745L163.276 162.798C158.871 165.35 151.716 165.35 147.31 162.798L91.909 130.806C90.0557 129.742 88.9924 128.39 88.7037 127.008C88.2936 128.937 89.357 130.942 91.909 132.416L147.326 164.408C151.731 166.96 158.886 166.96 163.291 164.408L218.419 132.355C220.987 130.881 222.05 128.861 221.625 126.947C221.321 128.329 220.257 129.681 218.404 130.745Z" fill="white"/>
<path d="M170.734 171.502L168.106 173.006V169.983L170.734 168.464V171.502Z" fill="white"/>
<path d="M176.218 168.327L173.605 169.846V166.808L176.218 165.304V168.327Z" fill="white"/>
<path d="M181.718 165.167L179.09 166.671V163.648L181.718 162.129V165.167Z" fill="white"/>
<path d="M177.221 173.887L174.608 175.406V172.368L177.221 170.864V173.887Z" fill="white"/>
<path d="M182.051 171.107L179.438 172.611V169.588L182.051 168.069V171.107Z" fill="white"/>
<path d="M199.324 154.99L196.696 156.509V153.486L199.324 151.967V154.99Z" fill="white"/>
<path d="M214.439 146.27L211.811 147.789V144.751L214.439 143.232V146.27Z" fill="white"/>
<path d="M187.201 161.993L184.573 163.512V160.474L187.201 158.97V161.993Z" fill="white"/>
<path d="M289.089 340.623C286.112 340.623 283.119 339.97 280.856 338.664L225.439 306.671C223.145 305.35 221.869 303.542 221.869 301.613C221.869 299.684 223.13 297.876 225.439 296.554L280.567 264.501C285.109 261.873 292.507 261.873 297.049 264.501L352.466 296.493C354.76 297.815 356.036 299.623 356.036 301.552C356.036 303.481 354.775 305.274 352.466 306.611L297.338 338.664C295.059 339.97 292.082 340.623 289.089 340.623ZM288.8 263.544C286.005 263.544 283.21 264.167 281.068 265.382L225.94 297.435C223.965 298.575 222.887 300.048 222.887 301.598C222.887 303.147 223.965 304.621 225.94 305.76L281.357 337.752C285.626 340.213 292.553 340.213 296.806 337.752L351.934 305.699C353.909 304.56 354.988 303.086 354.988 301.537C354.988 299.987 353.909 298.514 351.934 297.375L296.518 265.382C294.391 264.152 291.596 263.544 288.8 263.544Z" fill="#03A7D3"/>
<path d="M355.778 284.051L355.762 257.482L322.19 261.963L297.049 247.441C292.644 244.889 285.489 244.889 281.084 247.441L277.164 249.932L222.659 257.209V284.097C222.659 284.112 222.659 284.127 222.659 284.142V284.264H222.674C222.735 285.889 223.814 287.499 225.956 288.73L281.372 320.722C285.778 323.274 292.933 323.274 297.338 320.722L352.466 288.669C354.593 287.439 355.671 285.828 355.747 284.218H355.778V284.051Z" fill="url(#paint14_linear_185_5547)"/>
<path d="M352.466 252.682L297.049 220.69C292.644 218.138 285.489 218.138 281.083 220.69L225.955 252.743C221.55 255.295 221.55 259.412 225.955 261.964L281.372 293.956C285.777 296.508 292.932 296.508 297.338 293.956L352.466 261.903C356.886 259.351 356.886 255.219 352.466 252.682Z" fill="url(#paint15_radial_185_5547)"/>
<path d="M352.466 260.293L297.338 292.346C292.933 294.898 285.778 294.898 281.373 292.346L225.956 260.354C224.103 259.29 223.039 257.938 222.751 256.556C222.34 258.485 223.404 260.49 225.956 261.964L281.373 293.956C285.778 296.508 292.933 296.508 297.338 293.956L352.466 261.903C355.034 260.43 356.097 258.409 355.671 256.495C355.383 257.877 354.32 259.214 352.466 260.293Z" fill="white"/>
<path d="M304.796 301.049L302.168 302.553V299.53L304.796 298.011V301.049Z" fill="white"/>
<path d="M310.28 297.875L307.667 299.394V296.355L310.28 294.852V297.875Z" fill="white"/>
<path d="M315.779 294.7L313.151 296.219V293.196L315.779 291.677V294.7Z" fill="white"/>
<path d="M311.283 303.435L308.67 304.954V301.916L311.283 300.412V303.435Z" fill="white"/>
<path d="M316.113 300.64L313.5 302.159V299.136L316.113 297.617V300.64Z" fill="white"/>
<path d="M333.386 284.537L330.758 286.056V283.033L333.386 281.514V284.537Z" fill="white"/>
<path d="M348.501 275.817L345.873 277.321V274.298L348.501 272.779V275.817Z" fill="white"/>
<path d="M321.263 291.54L318.635 293.044V290.021L321.263 288.502V291.54Z" fill="white"/>
<path opacity="0.4" d="M286.081 280.436L248.803 258.911C247.283 258.03 247.481 256.511 249.228 255.493L285.656 234.453C287.403 233.436 290.046 233.329 291.565 234.21L328.844 255.736C330.363 256.617 330.165 258.136 328.418 259.154L291.99 280.193C290.243 281.196 287.6 281.317 286.081 280.436Z" fill="#06033E"/>
<path d="M271.407 303.739L240.645 285.981C239.916 285.555 239.309 284.416 239.309 283.444V281.15C239.309 280.178 239.901 279.722 240.645 280.147L271.407 297.906C272.136 298.331 272.744 299.47 272.744 300.442V302.721C272.744 303.709 272.151 304.164 271.407 303.739Z" fill="white"/>
<path d="M355.778 234.21L355.762 207.641L322.19 212.123L297.049 197.6C292.644 195.048 285.489 195.048 281.084 197.6L277.164 200.091L222.659 207.368V234.241C222.659 234.256 222.659 234.271 222.659 234.286V234.408H222.674C222.735 236.033 223.814 237.643 225.956 238.874L281.372 270.866C285.778 273.418 292.933 273.418 297.338 270.866L352.466 238.813C354.593 237.583 355.671 235.972 355.747 234.362H355.778V234.21Z" fill="url(#paint16_linear_185_5547)"/>
<path d="M352.466 202.841L297.049 170.849C292.644 168.297 285.489 168.297 281.083 170.849L225.955 202.902C221.55 205.454 221.55 209.571 225.955 212.123L281.372 244.115C285.777 246.667 292.932 246.667 297.338 244.115L352.466 212.062C356.886 209.51 356.886 205.378 352.466 202.841Z" fill="url(#paint17_radial_185_5547)"/>
<path opacity="0.4" d="M326.079 204.77L293.783 186.131C291.216 184.642 287.053 184.642 284.471 186.131L252.357 204.801C249.79 206.289 249.79 208.69 252.357 210.178L284.653 228.818C287.22 230.306 291.383 230.306 293.965 228.818L326.079 210.148C328.646 208.659 328.646 206.259 326.079 204.77Z" fill="#06033E"/>
<path d="M352.466 210.436L297.338 242.489C292.933 245.041 285.778 245.041 281.373 242.489L225.956 210.497C224.103 209.434 223.039 208.082 222.751 206.699C222.34 208.629 223.404 210.634 225.956 212.107L281.373 244.1C285.778 246.652 292.933 246.652 297.338 244.1L352.466 212.047C355.034 210.573 356.097 208.553 355.671 206.639C355.383 208.036 354.32 209.373 352.466 210.436Z" fill="white"/>
<path d="M304.796 251.193L302.168 252.713V249.69L304.796 248.17V251.193Z" fill="white"/>
<path d="M310.28 248.034L307.667 249.538V246.515L310.28 244.996V248.034Z" fill="white"/>
<path d="M315.779 244.859L313.151 246.378V243.34L315.779 241.836V244.859Z" fill="white"/>
<path d="M311.283 253.594L308.67 255.098V252.075L311.283 250.556V253.594Z" fill="white"/>
<path d="M316.113 250.799L313.5 252.318V249.28L316.113 247.776V250.799Z" fill="white"/>
<path d="M333.386 234.696L330.758 236.215V233.177L333.386 231.673V234.696Z" fill="white"/>
<path d="M348.501 225.961L345.873 227.481V224.458L348.501 222.938V225.961Z" fill="white"/>
<path d="M321.263 241.699L318.635 243.203V240.18L321.263 238.661V241.699Z" fill="white"/>
<path d="M355.778 184.369L355.762 157.8L322.19 162.281L297.049 147.759C292.644 145.206 285.489 145.206 281.084 147.759L277.164 150.25L222.659 157.526V184.399C222.659 184.414 222.659 184.43 222.659 184.445V184.566H222.674C222.735 186.192 223.814 187.802 225.956 189.032L281.372 221.025C285.778 223.577 292.933 223.577 297.338 221.025L352.466 188.972C354.593 187.741 355.671 186.131 355.747 184.521H355.778V184.369Z" fill="url(#paint18_linear_185_5547)"/>
<path d="M352.466 152.984L297.049 120.992C292.644 118.44 285.489 118.44 281.083 120.992L225.955 153.045C221.55 155.597 221.55 159.714 225.955 162.266L281.372 194.258C285.777 196.81 292.932 196.81 297.338 194.258L352.466 162.205C356.886 159.668 356.886 155.536 352.466 152.984Z" fill="url(#paint19_radial_185_5547)"/>
<path d="M352.466 160.595L297.338 192.648C292.933 195.2 285.778 195.2 281.373 192.648L225.956 160.656C224.103 159.592 223.039 158.24 222.751 156.858C222.34 158.787 223.404 160.792 225.956 162.266L281.373 194.258C285.778 196.81 292.933 196.81 297.338 194.258L352.466 162.205C355.034 160.732 356.097 158.711 355.671 156.797C355.383 158.179 354.32 159.531 352.466 160.595Z" fill="white"/>
<path d="M304.796 201.353L302.168 202.872V199.833L304.796 198.33V201.353Z" fill="white"/>
<path d="M310.28 198.177L307.667 199.696V196.673L310.28 195.154V198.177Z" fill="white"/>
<path d="M315.779 195.018L313.151 196.537V193.499L315.779 191.979V195.018Z" fill="white"/>
<path d="M311.283 203.737L308.67 205.256V202.233L311.283 200.714V203.737Z" fill="white"/>
<path d="M316.113 200.958L313.5 202.477V199.439L316.113 197.919V200.958Z" fill="white"/>
<path d="M333.386 184.855L330.758 186.374V183.336L333.386 181.817V184.855Z" fill="white"/>
<path d="M348.501 176.12L345.873 177.639V174.601L348.501 173.097V176.12Z" fill="white"/>
<path d="M321.263 191.843L318.635 193.362V190.339L321.263 188.82V191.843Z" fill="white"/>
<path d="M323.651 322.699L323.135 323.594L418.524 378.669L419.041 377.774L323.651 322.699Z" fill="#03A7D3"/>
<path d="M459.001 355.297L428.528 337.706C425.748 336.096 422.056 335.048 418.152 334.744L385.446 332.177C381.39 331.858 377.547 330.764 374.63 329.078L344.157 311.487L344.674 310.59L375.162 328.181C377.942 329.792 381.618 330.84 385.537 331.144L418.244 333.711C422.299 334.03 426.143 335.139 429.059 336.81L459.533 354.401L459.001 355.297Z" fill="#03A7D3"/>
<path d="M378.048 402.025L347.575 384.433C344.613 382.717 342.653 380.423 342.076 377.992L337.625 359.11C337.108 356.953 335.331 354.887 332.612 353.322L302.139 335.731L302.655 334.835L333.128 352.426C336.106 354.143 338.05 356.437 338.627 358.867L343.078 377.749C343.595 379.907 345.372 381.973 348.091 383.537L378.564 401.128L378.048 402.025Z" fill="#03A7D3"/>
<path d="M398.297 390.343L365.819 371.582C364.163 370.625 362.842 369.516 361.87 368.27L348.79 351.439C347.909 350.299 346.679 349.281 345.144 348.385L312.666 329.624L313.183 328.728L345.661 347.489C347.317 348.446 348.638 349.555 349.61 350.8L362.69 367.632C363.571 368.771 364.801 369.789 366.336 370.685L398.814 389.446L398.297 390.343Z" fill="#03A7D3"/>
<path d="M438.767 366.98L406.273 348.219C404.724 347.322 402.916 346.609 400.896 346.077L371.76 338.527C369.663 337.98 367.764 337.221 366.124 336.279L333.646 317.518L334.162 316.622L366.655 335.382C368.205 336.279 370.028 337.008 372.033 337.524L401.169 345.074C403.281 345.621 405.165 346.381 406.805 347.322L439.299 366.083L438.767 366.98Z" fill="#03A7D3"/>
<path d="M98.6188 280.232L0.0527344 337.046L0.568613 337.941L99.1347 281.127L98.6188 280.232Z" fill="#03A7D3"/>
<path d="M112.712 288.358L14.1455 345.172L14.6614 346.067L113.227 289.253L112.712 288.358Z" fill="#03A7D3"/>
<path d="M126.799 296.503L28.2334 353.317L28.7493 354.212L127.315 297.398L126.799 296.503Z" fill="#03A7D3"/>
<path d="M140.892 304.628L42.3262 361.442L42.8421 362.337L141.408 305.523L140.892 304.628Z" fill="#03A7D3"/>
<defs>
<radialGradient id="paint0_radial_185_5547" cx="0" cy="0" r="1" gradientUnits="userSpaceOnUse" gradientTransform="translate(138.684 124.517) scale(123.928)">
<stop stop-color="#F8359E"/>
<stop offset="0.0428" stop-color="#E63192"/>
<stop offset="0.1941" stop-color="#AA246C"/>
<stop offset="0.3446" stop-color="#76194B"/>
<stop offset="1" stop-color="#161616" stop-opacity="0"/>
</radialGradient>
<linearGradient id="paint1_linear_185_5547" x1="178.616" y1="197.519" x2="272.489" y2="197.519" gradientUnits="userSpaceOnUse">
<stop stop-color="#01C8EF"/>
<stop offset="0.1297" stop-color="#04B1DD"/>
<stop offset="0.5466" stop-color="#0E6BA7"/>
<stop offset="0.8476" stop-color="#154085"/>
<stop offset="1" stop-color="#172F78"/>
</linearGradient>
<radialGradient id="paint2_radial_185_5547" cx="0" cy="0" r="1" gradientUnits="userSpaceOnUse" gradientTransform="translate(161.971 127.128) scale(209.636 209.636)">
<stop stop-color="#01C8EF"/>
<stop offset="0.1396" stop-color="#03BAE4"/>
<stop offset="0.4033" stop-color="#0895C8"/>
<stop offset="0.76" stop-color="#115A9A"/>
<stop offset="1" stop-color="#172F78"/>
</radialGradient>
<linearGradient id="paint3_linear_185_5547" x1="178.616" y1="147.674" x2="272.489" y2="147.674" gradientUnits="userSpaceOnUse">
<stop stop-color="#01C8EF"/>
<stop offset="0.1297" stop-color="#04B1DD"/>
<stop offset="0.5466" stop-color="#0E6BA7"/>
<stop offset="0.8476" stop-color="#154085"/>
<stop offset="1" stop-color="#172F78"/>
</linearGradient>
<radialGradient id="paint4_radial_185_5547" cx="0" cy="0" r="1" gradientUnits="userSpaceOnUse" gradientTransform="translate(161.971 77.2824) scale(209.636 209.636)">
<stop stop-color="#01C8EF"/>
<stop offset="0.1396" stop-color="#03BAE4"/>
<stop offset="0.4033" stop-color="#0895C8"/>
<stop offset="0.76" stop-color="#115A9A"/>
<stop offset="1" stop-color="#172F78"/>
</radialGradient>
<linearGradient id="paint5_linear_185_5547" x1="178.616" y1="97.8286" x2="272.489" y2="97.8286" gradientUnits="userSpaceOnUse">
<stop stop-color="#01C8EF"/>
<stop offset="0.1297" stop-color="#04B1DD"/>
<stop offset="0.5466" stop-color="#0E6BA7"/>
<stop offset="0.8476" stop-color="#154085"/>
<stop offset="1" stop-color="#172F78"/>
</linearGradient>
<radialGradient id="paint6_radial_185_5547" cx="0" cy="0" r="1" gradientUnits="userSpaceOnUse" gradientTransform="translate(161.971 27.437) scale(209.636 209.636)">
<stop stop-color="#01C8EF"/>
<stop offset="0.1396" stop-color="#03BAE4"/>
<stop offset="0.4033" stop-color="#0895C8"/>
<stop offset="0.76" stop-color="#115A9A"/>
<stop offset="1" stop-color="#172F78"/>
</radialGradient>
<linearGradient id="paint7_linear_185_5547" x1="80.5931" y1="254.231" x2="174.466" y2="254.231" gradientUnits="userSpaceOnUse">
<stop stop-color="#01C8EF"/>
<stop offset="0.1297" stop-color="#04B1DD"/>
<stop offset="0.5466" stop-color="#0E6BA7"/>
<stop offset="0.8476" stop-color="#154085"/>
<stop offset="1" stop-color="#172F78"/>
</linearGradient>
<radialGradient id="paint8_radial_185_5547" cx="0" cy="0" r="1" gradientUnits="userSpaceOnUse" gradientTransform="translate(63.9472 183.84) scale(209.636 209.636)">
<stop stop-color="#01C8EF"/>
<stop offset="0.1396" stop-color="#03BAE4"/>
<stop offset="0.4033" stop-color="#0895C8"/>
<stop offset="0.76" stop-color="#115A9A"/>
<stop offset="1" stop-color="#172F78"/>
</radialGradient>
<linearGradient id="paint9_linear_185_5547" x1="80.5931" y1="204.386" x2="174.466" y2="204.386" gradientUnits="userSpaceOnUse">
<stop stop-color="#01C8EF"/>
<stop offset="0.1297" stop-color="#04B1DD"/>
<stop offset="0.5466" stop-color="#0E6BA7"/>
<stop offset="0.8476" stop-color="#154085"/>
<stop offset="1" stop-color="#172F78"/>
</linearGradient>
<radialGradient id="paint10_radial_185_5547" cx="0" cy="0" r="1" gradientUnits="userSpaceOnUse" gradientTransform="translate(63.9472 133.994) scale(209.636 209.636)">
<stop stop-color="#01C8EF"/>
<stop offset="0.1396" stop-color="#03BAE4"/>
<stop offset="0.4033" stop-color="#0895C8"/>
<stop offset="0.76" stop-color="#115A9A"/>
<stop offset="1" stop-color="#172F78"/>
</radialGradient>
<linearGradient id="paint11_linear_185_5547" x1="80.5931" y1="154.541" x2="174.466" y2="154.541" gradientUnits="userSpaceOnUse">
<stop stop-color="#01C8EF"/>
<stop offset="0.1297" stop-color="#04B1DD"/>
<stop offset="0.5466" stop-color="#0E6BA7"/>
<stop offset="0.8476" stop-color="#154085"/>
<stop offset="1" stop-color="#172F78"/>
</linearGradient>
<radialGradient id="paint12_radial_185_5547" cx="0" cy="0" r="1" gradientUnits="userSpaceOnUse" gradientTransform="translate(63.9472 84.1491) scale(209.636 209.636)">
<stop stop-color="#01C8EF"/>
<stop offset="0.1396" stop-color="#03BAE4"/>
<stop offset="0.4033" stop-color="#0895C8"/>
<stop offset="0.76" stop-color="#115A9A"/>
<stop offset="1" stop-color="#172F78"/>
</radialGradient>
<radialGradient id="paint13_radial_185_5547" cx="0" cy="0" r="1" gradientUnits="userSpaceOnUse" gradientTransform="translate(82.4459 96.7815) scale(144.132 144.132)">
<stop stop-color="#F9636B"/>
<stop offset="1" stop-color="#B6246E"/>
</radialGradient>
<linearGradient id="paint14_linear_185_5547" x1="214.653" y1="284.085" x2="308.526" y2="284.085" gradientUnits="userSpaceOnUse">
<stop stop-color="#01C8EF"/>
<stop offset="0.1297" stop-color="#04B1DD"/>
<stop offset="0.5466" stop-color="#0E6BA7"/>
<stop offset="0.8476" stop-color="#154085"/>
<stop offset="1" stop-color="#172F78"/>
</linearGradient>
<radialGradient id="paint15_radial_185_5547" cx="0" cy="0" r="1" gradientUnits="userSpaceOnUse" gradientTransform="translate(198.008 213.694) scale(209.636 209.636)">
<stop stop-color="#01C8EF"/>
<stop offset="0.1396" stop-color="#03BAE4"/>
<stop offset="0.4033" stop-color="#0895C8"/>
<stop offset="0.76" stop-color="#115A9A"/>
<stop offset="1" stop-color="#172F78"/>
</radialGradient>
<linearGradient id="paint16_linear_185_5547" x1="214.653" y1="234.241" x2="308.526" y2="234.241" gradientUnits="userSpaceOnUse">
<stop stop-color="#01C8EF"/>
<stop offset="0.1297" stop-color="#04B1DD"/>
<stop offset="0.5466" stop-color="#0E6BA7"/>
<stop offset="0.8476" stop-color="#154085"/>
<stop offset="1" stop-color="#172F78"/>
</linearGradient>
<radialGradient id="paint17_radial_185_5547" cx="0" cy="0" r="1" gradientUnits="userSpaceOnUse" gradientTransform="translate(198.008 163.85) scale(209.636 209.636)">
<stop stop-color="#01C8EF"/>
<stop offset="0.1396" stop-color="#03BAE4"/>
<stop offset="0.4033" stop-color="#0895C8"/>
<stop offset="0.76" stop-color="#115A9A"/>
<stop offset="1" stop-color="#172F78"/>
</radialGradient>
<linearGradient id="paint18_linear_185_5547" x1="214.653" y1="184.396" x2="308.526" y2="184.396" gradientUnits="userSpaceOnUse">
<stop stop-color="#01C8EF"/>
<stop offset="0.1297" stop-color="#04B1DD"/>
<stop offset="0.5466" stop-color="#0E6BA7"/>
<stop offset="0.8476" stop-color="#154085"/>
<stop offset="1" stop-color="#172F78"/>
</linearGradient>
<radialGradient id="paint19_radial_185_5547" cx="0" cy="0" r="1" gradientUnits="userSpaceOnUse" gradientTransform="translate(198.008 114.004) scale(209.636 209.636)">
<stop stop-color="#01C8EF"/>
<stop offset="0.1396" stop-color="#03BAE4"/>
<stop offset="0.4033" stop-color="#0895C8"/>
<stop offset="0.76" stop-color="#115A9A"/>
<stop offset="1" stop-color="#172F78"/>
</radialGradient>
</defs>
</svg>
