<svg width="374" height="490" viewBox="0 0 374 490" fill="none" xmlns="http://www.w3.org/2000/svg">
<g clip-path="url(#clip0_151_2624)">
<path opacity="0.4" d="M186.849 277.04C263.148 277.04 325 215.203 325 138.923C325 62.6433 263.148 0.806396 186.849 0.806396C110.55 0.806396 48.6973 62.6433 48.6973 138.923C48.6973 215.203 110.55 277.04 186.849 277.04Z" fill="url(#paint0_radial_151_2624)"/>
<path opacity="0.8" d="M228.481 76.8352H225.1V80.2154H228.481V76.8352Z" fill="#F8359E"/>
<path d="M235.663 76.8352H232.282V80.2154H235.663V76.8352Z" fill="#F8359E"/>
<path opacity="0.4" d="M242.846 76.8352H239.465V80.2154H242.846V76.8352Z" fill="#F8359E"/>
<path d="M250.028 76.8352H246.647V80.2154H250.028V76.8352Z" fill="#F8359E"/>
<path d="M272.888 76.8352H269.507V80.2154H272.888V76.8352Z" fill="#F8359E"/>
<path opacity="0.8" d="M250.028 100.9H246.647V104.28H250.028V100.9Z" fill="#F8359E"/>
<path d="M246.649 119.33H250.03V115.95H246.649V119.33Z" fill="#F8359E"/>
<path opacity="0.4" d="M246.649 126.178H250.03V122.798H246.649V126.178Z" fill="#F8359E"/>
<path d="M246.649 133.009H250.03V129.628H246.649V133.009Z" fill="#F8359E"/>
<path opacity="0.8" d="M263.097 123.663H266.478V120.283H263.097V123.663Z" fill="#F8359E"/>
<path d="M268.805 118.473H272.187V115.093H268.805V118.473Z" fill="#F8359E"/>
<path opacity="0.4" d="M280.071 76.8352H276.69V80.2154H280.071V76.8352Z" fill="#F8359E"/>
<path opacity="0.4" d="M137.72 132.366H141.101V128.986H137.72V132.366Z" fill="#F8359E"/>
<path d="M130.531 132.366H133.912V128.986H130.531V132.366Z" fill="#F8359E"/>
<path d="M105.985 96.7649H109.366V93.3847H105.985V96.7649Z" fill="#F8359E"/>
<path d="M105.985 89.7781H109.366V86.3979H105.985V89.7781Z" fill="#F8359E"/>
<path d="M105.985 82.7913H109.366V79.4111H105.985V82.7913Z" fill="#F8359E"/>
<path d="M107.679 132.366H111.06V128.986H107.679V132.366Z" fill="#F8359E"/>
<path opacity="0.8" d="M130.531 108.308H133.912V104.927H130.531V108.308Z" fill="#F8359E"/>
<path d="M133.913 89.8684H130.532V93.2486H133.913V89.8684Z" fill="#F8359E"/>
<path opacity="0.4" d="M133.913 83.0239H130.532V86.4041H133.913V83.0239Z" fill="#F8359E"/>
<path d="M133.913 76.1963H130.532V79.5765H133.913V76.1963Z" fill="#F8359E"/>
<path opacity="0.4" d="M100.49 132.366H103.871V128.986H100.49V132.366Z" fill="#F8359E"/>
<path d="M26.897 344.088H26.1064V359.493H26.897V344.088Z" fill="#13FFFF"/>
<path d="M26.897 363.108H26.1064V368.052H26.897V363.108Z" fill="#13FFFF"/>
<path d="M325.841 69.0491H325.051V84.4533H325.841V69.0491Z" fill="#13FFFF"/>
<path d="M325.841 87.9849H325.051V92.3909H325.841V87.9849Z" fill="#13FFFF"/>
<path d="M325.841 96.0737H325.051V100.48H325.841V96.0737Z" fill="#13FFFF"/>
<path d="M357.701 302.736H356.91V318.14H357.701V302.736Z" fill="#13FFFF"/>
<path d="M357.701 321.688H356.91V326.094H357.701V321.688Z" fill="#13FFFF"/>
<path d="M357.701 329.777H356.91V334.183H357.701V329.777Z" fill="#13FFFF"/>
<path d="M357.701 337.866H356.91V350.361H357.701V337.866Z" fill="#13FFFF"/>
<path d="M19.2603 281.597H18.4697V286.541H19.2603V281.597Z" fill="#13FFFF"/>
<path d="M19.2603 242.38H18.4697V258.003H19.2603V242.38Z" fill="#13FFFF"/>
<path d="M52.9024 182.697H52.1118V187.641H52.9024V182.697Z" fill="#13FFFF"/>
<path d="M52.9024 163.677H52.1118V179.082H52.9024V163.677Z" fill="#13FFFF"/>
<path d="M52.9024 143.48H52.1118V159.103H52.9024V143.48Z" fill="#13FFFF"/>
<path d="M52.9024 120.273H52.1118V135.896H52.9024V120.273Z" fill="#13FFFF"/>
<path opacity="0.3" d="M111.776 315.433V489.806H258.22V318.409L111.776 315.433Z" fill="url(#paint1_linear_151_2624)"/>
<path opacity="0.6" d="M111.776 315.433V489.806H113.323V318.409L111.776 315.433Z" fill="url(#paint2_linear_151_2624)"/>
<path opacity="0.6" d="M256.673 315.433V489.806H258.22V318.409L256.673 315.433Z" fill="url(#paint3_linear_151_2624)"/>
<path opacity="0.4" d="M185.503 298.263C262.499 298.263 324.916 235.861 324.916 158.885C324.916 81.9085 262.499 19.5068 185.503 19.5068C108.507 19.5068 46.0898 81.9085 46.0898 158.885C46.0898 235.861 108.507 298.263 185.503 298.263Z" fill="url(#paint4_radial_151_2624)"/>
<path opacity="0.4" d="M147.47 230.238C147.47 231.416 146.511 232.391 145.317 232.391C144.123 232.391 143.164 231.432 143.164 230.238C143.164 229.061 144.123 228.086 145.317 228.086C146.511 228.086 147.47 229.044 147.47 230.238Z" fill="#13FFFF"/>
<path opacity="0.4" d="M178.808 198.539C178.808 203.231 175.007 207.048 170.297 207.048C165.604 207.048 161.785 203.248 161.785 198.539C161.785 193.847 165.587 190.03 170.297 190.03C174.99 190.046 178.808 193.847 178.808 198.539Z" fill="#13FFFF"/>
<path opacity="0.8" d="M173.829 198.539C173.829 200.49 172.248 202.07 170.297 202.07C168.345 202.07 166.764 200.49 166.764 198.539C166.764 196.588 168.345 195.007 170.297 195.007C172.248 195.007 173.829 196.588 173.829 198.539Z" fill="#13FFFF"/>
<path opacity="0.4" d="M136.705 190.282C139.102 190.282 141.045 188.339 141.045 185.943C141.045 183.547 139.102 181.604 136.705 181.604C134.308 181.604 132.365 183.547 132.365 185.943C132.365 188.339 134.308 190.282 136.705 190.282Z" fill="#13FFFF"/>
<path opacity="0.8" d="M136.705 188.079C137.885 188.079 138.841 187.122 138.841 185.943C138.841 184.763 137.885 183.807 136.705 183.807C135.525 183.807 134.569 184.763 134.569 185.943C134.569 187.122 135.525 188.079 136.705 188.079Z" fill="#13FFFF"/>
<path opacity="0.4" d="M104.106 337.681C104.106 338.404 103.517 338.993 102.793 338.993C102.07 338.993 101.481 338.404 101.481 337.681C101.481 336.958 102.07 336.37 102.793 336.37C103.517 336.37 104.106 336.958 104.106 337.681Z" fill="#13FFFF"/>
<path opacity="0.6" d="M89.1686 105.643C118.505 97.1335 153.207 92.3407 190.247 92.6434C195.141 92.677 199.969 92.8116 204.763 93.0302C237.295 96.0068 248.851 130.347 229.255 145.364C220.255 152.259 209.406 152.192 204.763 152.158C199.969 151.94 195.141 151.822 190.247 151.771C153.207 151.469 118.505 156.262 89.1686 164.771C59.5467 171.985 57.7973 141.9 68.1591 123.485C71.6411 117.297 78.1172 109.174 89.1686 105.643Z" fill="#13FFFF"/>
<path d="M80.859 166.503C73.0204 166.503 68.5796 163.156 66.0901 159.877C58.9579 150.476 61.5484 133.945 67.604 123.166C71.1364 116.876 77.7303 108.619 88.9836 105.037H89.0004C119.379 96.2253 154.401 91.6847 190.263 92.0211C195.108 92.0547 200.003 92.1893 204.797 92.4079C221.147 93.9046 234.284 103.86 238.321 117.768C241.45 128.598 238.119 139.377 229.641 145.869C220.474 152.898 209.473 152.848 204.763 152.797C199.952 152.579 195.074 152.461 190.247 152.41C154.502 152.141 119.615 156.598 89.3536 165.376C86.1408 166.167 83.3317 166.503 80.859 166.503ZM89.3536 106.248C78.504 109.712 72.1288 117.7 68.7142 123.788C62.8436 134.215 60.2868 150.123 67.0993 159.103C71.456 164.838 79.0255 166.587 89.034 164.148C119.396 155.336 154.418 150.813 190.263 151.132C195.108 151.166 200.003 151.3 204.797 151.519C209.338 151.536 220.037 151.62 228.868 144.86C236.925 138.688 240.087 128.43 237.093 118.104C233.208 104.684 220.508 95.0986 204.713 93.6523C199.952 93.4337 195.074 93.316 190.247 93.2655C154.502 93.0301 119.615 97.4866 89.3536 106.248Z" fill="#13FFFF"/>
<path d="M185.335 394.337C181.5 394.337 177.648 393.496 174.721 391.798L103.399 350.63C100.439 348.915 98.8071 346.611 98.8071 344.122C98.8071 341.633 100.439 339.329 103.399 337.614L174.334 296.379C180.188 292.999 189.708 292.999 195.545 296.379L266.867 337.547C269.827 339.262 271.459 341.566 271.459 344.055C271.459 346.544 269.827 348.848 266.867 350.563L195.932 391.798C193.022 393.48 189.17 394.337 185.335 394.337ZM184.965 295.152C181.365 295.152 177.765 295.942 175.023 297.523L104.089 338.758C101.549 340.221 100.17 342.121 100.17 344.122C100.17 346.123 101.566 348.024 104.089 349.47L175.41 390.638C180.894 393.799 189.809 393.799 195.293 390.638L266.227 349.403C268.767 347.94 270.147 346.039 270.147 344.038C270.147 342.037 268.751 340.137 266.227 338.673L194.906 297.506C192.164 295.942 188.564 295.152 184.965 295.152Z" fill="#13FFFF"/>
<path opacity="0.7" d="M185.335 418.116C181.5 418.116 177.648 417.275 174.721 415.577L103.399 374.409C100.439 372.694 98.8071 370.39 98.8071 367.901C98.8071 365.412 100.439 363.108 103.399 361.393L174.334 320.158C180.188 316.778 189.708 316.778 195.545 320.158L266.867 361.326C269.827 363.041 271.459 365.345 271.459 367.834C271.459 370.323 269.827 372.627 266.867 374.342L195.932 415.577C193.022 417.259 189.17 418.116 185.335 418.116ZM184.965 318.931C181.365 318.931 177.765 319.721 175.023 321.302L104.089 362.537C101.549 364 100.17 365.9 100.17 367.901C100.17 369.902 101.566 371.803 104.089 373.266L175.41 414.433C180.894 417.595 189.809 417.595 195.293 414.433L266.227 373.199C268.767 371.735 270.147 369.835 270.147 367.834C270.147 365.833 268.751 363.932 266.227 362.486L194.906 321.319C192.164 319.721 188.564 318.931 184.965 318.931Z" fill="#13FFFF"/>
<path opacity="0.4" d="M185.335 441.895C181.5 441.895 177.648 441.055 174.721 439.373L103.399 398.205C100.439 396.49 98.8071 394.186 98.8071 391.697C98.8071 389.208 100.439 386.904 103.399 385.189L174.334 343.954C180.188 340.574 189.708 340.574 195.545 343.954L266.867 385.122C269.827 386.837 271.459 389.141 271.459 391.63C271.459 394.119 269.827 396.423 266.867 398.138L195.932 439.373C193.022 441.038 189.17 441.895 185.335 441.895ZM184.965 342.71C181.365 342.71 177.765 343.5 175.023 345.081L104.089 386.316C101.549 387.779 100.17 389.679 100.17 391.68C100.17 393.681 101.566 395.582 104.089 397.045L175.41 438.212C180.894 441.374 189.809 441.374 195.293 438.212L266.227 396.978C268.767 395.515 270.147 393.614 270.147 391.613C270.147 389.612 268.751 387.712 266.227 386.265L194.906 345.098C192.164 343.5 188.564 342.71 184.965 342.71Z" fill="#13FFFF"/>
<path d="M271.156 321.554L271.139 287.365L227.926 293.133L195.579 274.45C189.91 271.171 180.709 271.171 175.023 274.45L169.977 277.645L99.8164 286.995V321.588C99.8164 321.604 99.8164 321.621 99.8164 321.638V321.806H99.85C99.9342 323.891 101.313 325.96 104.072 327.558L175.394 368.725C181.062 372.004 190.263 372.004 195.949 368.725L266.883 327.49C269.625 325.909 271.021 323.841 271.106 321.773H271.139V321.554H271.156Z" fill="url(#paint5_linear_151_2624)"/>
<path d="M266.9 281.177L195.579 240.009C189.91 236.73 180.709 236.73 175.023 240.009L104.089 281.244C98.4202 284.523 98.4202 289.837 104.089 293.1L175.41 334.267C181.079 337.547 190.28 337.547 195.966 334.267L266.9 293.033C272.586 289.77 272.586 284.456 266.9 281.177Z" fill="url(#paint6_radial_151_2624)"/>
<path d="M266.9 290.964L195.966 332.199C190.297 335.478 181.096 335.478 175.411 332.199L104.089 291.031C101.717 289.652 100.338 287.92 99.9512 286.138C99.4129 288.61 100.792 291.199 104.089 293.1L175.411 334.267C181.079 337.547 190.28 337.547 195.966 334.267L266.9 293.032C270.197 291.132 271.56 288.542 271.038 286.07C270.652 287.87 269.289 289.602 266.9 290.964Z" fill="white"/>
<path d="M205.554 343.399L202.173 345.35V341.465L205.554 339.514V343.399Z" fill="white"/>
<path d="M212.619 339.329L209.238 341.28V337.378L212.619 335.428V339.329Z" fill="white"/>
<path d="M219.684 335.26L216.303 337.194V333.309L219.684 331.358V335.26Z" fill="white"/>
<path d="M213.897 346.476L210.533 348.427V344.543L213.897 342.592V346.476Z" fill="white"/>
<path d="M220.121 342.894L216.74 344.845V340.944L220.121 338.993V342.894Z" fill="white"/>
<path d="M242.342 322.176L238.96 324.127V320.225L242.342 318.275V322.176Z" fill="white"/>
<path d="M261.787 310.943L258.422 312.893V308.992L261.787 307.041V310.943Z" fill="white"/>
<path d="M226.748 331.173L223.367 333.124V329.222L226.748 327.272V331.173Z" fill="white"/>
<path opacity="0.4" d="M181.466 316.896L133.492 289.198C131.541 288.072 131.793 286.104 134.031 284.809L180.911 257.751C183.165 256.456 186.563 256.305 188.514 257.431L236.488 285.129C238.439 286.255 238.187 288.223 235.949 289.518L189.069 316.576C186.815 317.871 183.417 318.022 181.466 316.896Z" fill="#06033E"/>
<path d="M162.593 346.863L122.996 324.009C122.054 323.471 121.28 322.008 121.28 320.747V317.804C121.28 316.542 122.054 315.971 122.996 316.509L162.593 339.363C163.535 339.901 164.309 341.364 164.309 342.625V345.568C164.292 346.83 163.535 347.418 162.593 346.863Z" fill="white"/>
<path d="M271.156 257.414L271.139 223.226L227.926 228.994L195.579 210.311C189.91 207.031 180.709 207.031 175.023 210.311L169.977 213.506L99.8164 222.856V257.448C99.8164 257.465 99.8164 257.482 99.8164 257.499V257.667H99.85C99.9342 259.752 101.313 261.821 104.072 263.418L175.394 304.586C181.062 307.865 190.263 307.865 195.949 304.586L266.883 263.351C269.625 261.77 271.021 259.702 271.106 257.633H271.139V257.414H271.156Z" fill="url(#paint7_linear_151_2624)"/>
<path d="M266.9 217.054L195.579 175.886C189.91 172.607 180.709 172.607 175.023 175.886L104.089 217.121C98.4202 220.401 98.4202 225.715 104.089 228.977L175.41 270.145C181.079 273.424 190.28 273.424 195.966 270.145L266.9 228.91C272.586 225.631 272.586 220.317 266.9 217.054Z" fill="url(#paint8_radial_151_2624)"/>
<path opacity="0.4" d="M232.939 219.543L191.39 195.562C188.077 193.645 182.728 193.645 179.414 195.562L138.084 219.593C134.771 221.494 134.771 224.588 138.084 226.505L179.633 250.486C182.946 252.386 188.295 252.386 191.609 250.486L232.939 226.455C236.235 224.538 236.235 221.443 232.939 219.543Z" fill="#06033E"/>
<path d="M266.9 226.841L195.966 268.076C190.297 271.356 181.096 271.356 175.411 268.076L104.089 226.909C101.717 225.53 100.338 223.798 99.9512 222.015C99.4129 224.487 100.792 227.077 104.089 228.977L175.411 270.145C181.079 273.424 190.28 273.424 195.966 270.145L266.9 228.91C270.197 227.01 271.56 224.42 271.038 221.948C270.652 223.73 269.289 225.462 266.9 226.841Z" fill="white"/>
<path d="M205.554 279.276L202.173 281.227V277.326L205.554 275.375V279.276Z" fill="white"/>
<path d="M212.619 275.19L209.238 277.141V273.256L212.619 271.305V275.19Z" fill="white"/>
<path d="M219.684 271.12L216.303 273.071V269.17L219.684 267.219V271.12Z" fill="white"/>
<path d="M213.897 282.354L210.533 284.305V280.403L213.897 278.452V282.354Z" fill="white"/>
<path d="M220.121 278.755L216.74 280.706V276.804L220.121 274.87V278.755Z" fill="white"/>
<path d="M242.342 258.037L238.96 259.988V256.086L242.342 254.152V258.037Z" fill="white"/>
<path d="M261.787 246.803L258.422 248.754V244.869L261.787 242.918V246.803Z" fill="white"/>
<path d="M226.748 267.051L223.367 268.985V265.1L226.748 263.149V267.051Z" fill="white"/>
<path d="M271.156 193.292L271.139 159.103L227.926 164.871L195.579 146.188C189.91 142.909 180.709 142.909 175.023 146.188L169.977 149.383L99.8164 158.733V193.326C99.8164 193.342 99.8164 193.359 99.8164 193.376V193.544H99.85C99.9342 195.629 101.313 197.698 104.072 199.296L175.394 240.463C181.062 243.742 190.263 243.742 195.949 240.463L266.883 199.228C269.625 197.648 271.021 195.579 271.106 193.511H271.139V193.292H271.156Z" fill="url(#paint9_linear_151_2624)"/>
<path d="M266.9 152.915L195.579 111.747C189.91 108.468 180.709 108.468 175.023 111.747L104.089 152.982C98.4202 156.261 98.4202 161.575 104.089 164.838L175.41 206.005C181.079 209.285 190.28 209.285 195.966 206.005L266.9 164.771C272.586 161.491 272.586 156.194 266.9 152.915Z" fill="url(#paint10_radial_151_2624)"/>
<path d="M266.9 152.915L195.579 111.747C189.91 108.468 180.709 108.468 175.023 111.747L104.089 152.982C98.4202 156.261 98.4202 161.575 104.089 164.838L175.41 206.005C181.079 209.285 190.28 209.285 195.966 206.005L266.9 164.771C272.586 161.491 272.586 156.194 266.9 152.915Z" fill="url(#paint11_radial_151_2624)"/>
<path d="M185.621 192.686C182.997 192.686 180.39 192.098 178.354 190.921L131.104 163.644C128.984 162.416 127.824 160.734 127.824 158.918C127.824 157.102 128.984 155.404 131.104 154.193L178.102 126.865C182.189 124.511 188.565 124.511 192.652 126.865L239.903 154.142C242.022 155.37 243.183 157.052 243.183 158.868C243.183 160.684 242.022 162.383 239.903 163.593L192.905 190.921C190.852 192.098 188.245 192.686 185.621 192.686ZM185.369 126.933C183.064 126.933 180.777 127.437 179.027 128.446L132.029 155.774C130.498 156.648 129.674 157.758 129.674 158.901C129.674 160.045 130.515 161.155 132.029 162.029L179.279 189.306C182.778 191.324 188.464 191.324 191.963 189.306L238.961 161.979C240.491 161.104 241.316 159.995 241.316 158.851C241.316 157.707 240.475 156.598 238.961 155.723L191.727 128.446C189.978 127.437 187.673 126.933 185.369 126.933Z" fill="#8B1E64"/>
<path d="M266.9 162.702L195.966 203.937C190.297 207.216 181.096 207.216 175.411 203.937L104.089 162.769C101.717 161.39 100.338 159.658 99.9512 157.876C99.4129 160.348 100.792 162.937 104.089 164.838L175.411 206.005C181.079 209.285 190.28 209.285 195.966 206.005L266.9 164.771C270.197 162.87 271.56 160.28 271.038 157.808C270.652 159.591 269.289 161.323 266.9 162.702Z" fill="white"/>
<path d="M205.554 215.137L202.173 217.088V213.186L205.554 211.236V215.137Z" fill="white"/>
<path d="M212.619 211.067L209.238 213.018V209.117L212.619 207.166V211.067Z" fill="white"/>
<path d="M219.684 206.981L216.303 208.932V205.03L219.684 203.096V206.981Z" fill="white"/>
<path d="M213.897 218.214L210.533 220.165V216.264L213.897 214.313V218.214Z" fill="white"/>
<path d="M220.121 214.632L216.74 216.583V212.682L220.121 210.731V214.632Z" fill="white"/>
<path d="M242.342 193.914L238.96 195.865V191.963L242.342 190.013V193.914Z" fill="white"/>
<path d="M261.787 182.681L258.422 184.631V180.73L261.787 178.779V182.681Z" fill="white"/>
<path d="M226.748 202.911L223.367 204.862V200.961L226.748 199.01V202.911Z" fill="white"/>
<path opacity="0.6" d="M197.883 288.425C193.207 288.543 188.497 288.593 183.754 288.56C146.562 288.257 112.113 282.859 83.3654 273.811C54.6519 266.143 52.9025 296.178 62.9278 314.743C70.06 327.961 79.7321 331.577 83.3654 332.939C112.113 341.987 146.562 347.385 183.754 347.688C188.497 347.721 193.224 347.688 197.883 347.553C231.626 345.064 240.474 312.658 224.696 297.54C220.289 293.319 212.064 288.307 197.883 288.425Z" fill="#13FFFF"/>
<g opacity="0.3">
<path d="M372.621 251.579L372.099 250.553C371.628 249.612 371.073 248.266 370.401 246.45C364.126 228.137 345.808 211.538 317.397 198.421C297.649 187.204 292.872 171.01 291.728 164.552C290.383 156.934 291.913 146.154 298.44 140.47C303.234 136.3 309.761 135.509 317.851 138.116C346.649 151.401 365.203 168.269 371.595 186.902C372.941 192.165 373.983 196.269 374 214.868V246.4C374 249.158 374 249.326 373.21 250.621L372.621 251.579ZM292.99 164.35C294.1 170.623 298.76 186.38 317.986 197.311C346.666 210.546 365.22 227.413 371.612 246.047C371.999 247.106 372.352 248.014 372.671 248.754C372.739 248.317 372.739 247.661 372.739 246.4V214.868C372.722 196.437 371.696 192.401 370.401 187.272C364.143 169.025 345.825 152.41 317.414 139.31C309.845 136.872 303.722 137.578 299.298 141.446C293.124 146.794 291.695 157.069 292.99 164.35Z" fill="#13FFFF"/>
<path d="M1.26158 260.307L0 260.257V201.129C0 200.607 0.0168211 200.069 0.0336422 199.548C0.403706 189.744 4.12117 180.158 11.1187 171.043L11.3879 170.774C12.7336 169.446 14.5671 167.613 16.4678 167.344C19.0078 166.974 21.2787 168.269 23.0281 171.06C28.8482 180.377 28.3267 207.048 12.1448 230.911C2.69137 243.709 2.06899 251.041 1.26158 260.307ZM17.2921 168.554C17.0902 168.554 16.8715 168.571 16.6529 168.605C15.1726 168.824 13.4905 170.472 12.2794 171.682L12.0607 171.884C5.28182 180.713 1.64847 190.063 1.29522 199.598C1.2784 200.12 1.26158 200.624 1.26158 201.129V250.301C2.4727 244.55 4.96222 238.496 11.1019 230.188C26.9642 206.779 27.5866 180.763 21.9515 171.733C21.0264 170.236 19.4788 168.554 17.2921 168.554Z" fill="#13FFFF"/>
</g>
<path d="M14.7353 291.065C13.1709 291.065 11.1356 290.241 8.88153 287.18C1.1943 276.67 0.437348 266.412 0 260.29V201.112H1.26158C1.26158 210.042 4.17163 218.854 9.92444 227.312C22.5403 248.182 24.0373 268.766 22.9271 277.645C22.0188 284.927 19.3106 290.022 15.8455 290.914C15.509 291.015 15.139 291.065 14.7353 291.065ZM1.26158 211.437V260.257C1.69893 266.193 2.42224 276.216 9.90762 286.44C11.2365 288.257 13.2887 290.291 15.5259 289.703C18.4359 288.946 20.8413 284.153 21.6656 277.511C22.7421 268.8 21.2787 248.552 8.84789 228.019C5.19772 222.621 2.65773 217.071 1.26158 211.437Z" fill="#13FFFF"/>
<path d="M187 348.326C185.923 348.326 184.83 348.326 183.754 348.309C147.74 348.007 112.97 342.911 83.1803 333.528C79.446 332.132 69.6225 328.449 62.3726 315.029C56.3843 303.947 53.9452 287.197 61.2287 277.981C64.4248 273.929 70.9009 269.808 83.5335 273.189C113.223 282.539 147.874 287.618 183.77 287.92C188.48 287.954 193.224 287.92 197.883 287.786H197.9C212.299 287.735 220.676 292.78 225.15 297.069C232.535 304.148 234.89 315.399 231.155 325.741C226.53 338.589 214.116 346.981 197.951 348.158C194.317 348.276 190.65 348.326 187 348.326ZM74.9211 273.222C69.4543 273.222 65.1312 275.089 62.2212 278.772C55.2741 287.55 57.6963 303.711 63.4996 314.44C70.5308 327.44 80.0179 331.005 83.6008 332.35C113.24 341.667 147.891 346.762 183.77 347.065C188.497 347.099 193.241 347.065 197.883 346.931C213.51 345.77 225.52 337.715 229.961 325.338C233.51 315.449 231.29 304.72 224.276 297.994C220.003 293.907 212.063 289.047 198.371 289.047C198.22 289.047 198.068 289.047 197.9 289.047C193.224 289.181 188.463 289.215 183.754 289.181C147.74 288.896 112.97 283.783 83.1803 274.399C80.2029 273.609 77.4443 273.222 74.9211 273.222Z" fill="#13FFFF"/>
<path d="M304.512 326.717C298.759 326.717 293.982 324.615 290.635 320.528C284.175 312.641 284.024 298.33 290.265 286.491C297.313 273.155 308.246 267.337 312.367 265.134C341.838 252.487 361.468 236.209 369.189 218.03C370.03 216.213 370.787 214.834 371.426 213.909L371.578 213.674L373.007 213.489L373.176 213.977C373.68 215.423 373.899 216.012 373.966 223.091V241.287C373.798 266.95 372.284 271.642 370.367 277.595C362.511 296.144 342.645 312.658 312.906 325.405C309.945 326.28 307.136 326.717 304.512 326.717ZM372.2 215.019C371.662 215.877 371.039 217.054 370.35 218.534C362.511 236.999 342.662 253.513 312.923 266.26C308.936 268.379 298.255 274.063 291.392 287.063C285.37 298.464 285.47 312.204 291.61 319.704C294.823 323.622 301.047 327.574 312.485 324.194C341.838 311.598 361.468 295.32 369.189 277.141C371.056 271.356 372.536 266.748 372.705 241.27V223.091C372.654 217.391 372.52 216.045 372.2 215.019Z" fill="#13FFFF"/>
<path d="M315.681 417.141C313.965 417.141 312.25 416.754 310.921 415.981L280.206 398.256C278.809 397.448 278.036 396.339 278.036 395.128C278.036 393.917 278.809 392.807 280.206 392L310.769 374.241C313.444 372.711 317.616 372.711 320.29 374.241L351.006 391.966C352.402 392.773 353.175 393.883 353.175 395.094C353.175 396.305 352.402 397.415 351.006 398.222L320.442 415.981C319.113 416.754 317.397 417.141 315.681 417.141ZM315.513 374.393C314.033 374.393 312.553 374.712 311.426 375.368L280.862 393.127C279.886 393.682 279.365 394.388 279.365 395.111C279.365 395.834 279.903 396.54 280.862 397.095L311.577 414.82C313.831 416.115 317.515 416.132 319.769 414.82L350.333 397.062C351.308 396.507 351.83 395.8 351.83 395.077C351.83 394.354 351.291 393.665 350.333 393.093L319.617 375.368C318.49 374.712 316.993 374.393 315.513 374.393Z" fill="#13FFFF"/>
<path d="M55.1226 417.141C53.4069 417.141 51.6911 416.754 50.3623 415.981L19.647 398.256C18.2508 397.448 17.4771 396.339 17.4771 395.128C17.4771 393.917 18.2508 392.807 19.647 392L50.2109 374.241C52.8854 372.694 57.0571 372.711 59.7316 374.241L90.4469 391.966C91.8431 392.773 92.6168 393.883 92.6168 395.094C92.6168 396.305 91.8431 397.415 90.4469 398.222L59.883 415.981C58.5541 416.754 56.8384 417.141 55.1226 417.141ZM54.9712 374.393C53.491 374.393 52.0107 374.712 50.8837 375.368L20.3198 393.127C19.3442 393.681 18.8227 394.388 18.8227 395.111C18.8227 395.834 19.361 396.54 20.3198 397.095L51.0351 414.82C53.2891 416.132 56.973 416.132 59.227 414.82L89.7909 397.062C90.7665 396.507 91.288 395.8 91.288 395.077C91.288 394.354 90.7497 393.665 89.7909 393.093L59.0756 375.368C57.9318 374.712 56.4515 374.393 54.9712 374.393Z" fill="#13FFFF"/>
<g opacity="0.5">
<path d="M315.681 403.284C313.965 403.284 312.25 402.897 310.921 402.124L280.206 384.399C278.809 383.591 278.036 382.482 278.036 381.271C278.036 380.06 278.809 378.95 280.206 378.143L310.769 360.384C313.444 358.837 317.616 358.837 320.29 360.384L351.006 378.109C352.402 378.916 353.175 380.026 353.175 381.237C353.175 382.448 352.402 383.558 351.006 384.365L320.442 402.124C319.113 402.897 317.397 403.284 315.681 403.284ZM315.513 360.552C314.033 360.552 312.553 360.872 311.426 361.528L280.862 379.286C279.886 379.841 279.365 380.548 279.365 381.271C279.365 381.994 279.903 382.683 280.862 383.255L311.577 400.98C313.831 402.292 317.515 402.292 319.769 400.98L350.333 383.221C351.308 382.667 351.83 381.96 351.83 381.237C351.83 380.514 351.291 379.808 350.333 379.253L319.617 361.528C318.49 360.872 316.993 360.552 315.513 360.552Z" fill="#13FFFF"/>
<path d="M55.1226 403.284C53.4069 403.284 51.6911 402.897 50.3623 402.124L19.647 384.399C18.2508 383.591 17.4771 382.482 17.4771 381.271C17.4771 380.06 18.2508 378.95 19.647 378.143L50.2109 360.384C52.8854 358.837 57.0571 358.837 59.7316 360.384L90.4469 378.109C91.8431 378.916 92.6168 380.026 92.6168 381.237C92.6168 382.448 91.8431 383.558 90.4469 384.365L59.883 402.14C58.5541 402.897 56.8384 403.284 55.1226 403.284ZM54.9712 360.552C53.491 360.552 52.0107 360.872 50.8837 361.528L20.3198 379.286C19.3442 379.841 18.8227 380.548 18.8227 381.271C18.8227 381.994 19.361 382.683 20.3198 383.255L51.0351 400.98C53.2891 402.292 56.973 402.292 59.227 400.98L89.7909 383.221C90.7665 382.667 91.288 381.96 91.288 381.237C91.288 380.514 90.7497 379.808 89.7909 379.253L59.0588 361.528C57.9318 360.872 56.4515 360.552 54.9712 360.552Z" fill="#13FFFF"/>
</g>
<path opacity="0.4" d="M59.1597 213.018C59.1597 216.684 56.1824 219.678 52.4986 219.678C48.8316 219.678 45.8374 216.701 45.8374 213.018C45.8374 209.335 48.8147 206.359 52.4986 206.359C56.1824 206.359 59.1597 209.335 59.1597 213.018Z" fill="#13FFFF"/>
<path opacity="0.8" d="M55.7785 213.018C55.7785 214.817 54.3151 216.28 52.5152 216.28C50.7154 216.28 49.252 214.817 49.252 213.018C49.252 211.219 50.7154 209.756 52.5152 209.756C54.3151 209.739 55.7785 211.202 55.7785 213.018Z" fill="#01C8EF"/>
<path opacity="0.4" d="M360.576 362.537C360.576 364.336 359.113 365.799 357.313 365.799C355.513 365.799 354.05 364.336 354.05 362.537C354.05 360.737 355.513 359.274 357.313 359.274C359.113 359.274 360.576 360.737 360.576 362.537Z" fill="#13FFFF"/>
<path opacity="0.8" d="M357.313 364.134C358.195 364.134 358.911 363.419 358.911 362.537C358.911 361.654 358.195 360.939 357.313 360.939C356.43 360.939 355.715 361.654 355.715 362.537C355.715 363.419 356.43 364.134 357.313 364.134Z" fill="#01C8EF"/>
<path opacity="0.4" d="M330.972 59.1944C330.972 62.2382 328.499 64.7103 325.455 64.7103C322.41 64.7103 319.938 62.2382 319.938 59.1944C319.938 56.1505 322.41 53.6785 325.455 53.6785C328.499 53.6785 330.972 56.1337 330.972 59.1944Z" fill="#13FFFF"/>
<path opacity="0.8" d="M328.163 59.1943C328.163 60.691 326.952 61.9018 325.455 61.9018C323.958 61.9018 322.747 60.691 322.747 59.1943C322.747 57.6976 323.958 56.4868 325.455 56.4868C326.952 56.4868 328.163 57.6976 328.163 59.1943Z" fill="#01C8EF"/>
</g>
<defs>
<radialGradient id="paint0_radial_151_2624" cx="0" cy="0" r="1" gradientUnits="userSpaceOnUse" gradientTransform="translate(186.847 138.92) scale(131.3 131.267)">
<stop stop-color="#F8359E"/>
<stop offset="0.0428" stop-color="#E63192"/>
<stop offset="0.1941" stop-color="#681140"/>
<stop offset="1" stop-color="#161616"/>
</radialGradient>
<linearGradient id="paint1_linear_151_2624" x1="184.993" y1="489.8" x2="184.993" y2="315.435" gradientUnits="userSpaceOnUse">
<stop stop-color="#161616" stop-opacity="0"/>
<stop offset="0.816" stop-color="#0179A3"/>
<stop offset="0.9224" stop-color="#01A4CC"/>
<stop offset="1" stop-color="#01C8EF"/>
</linearGradient>
<linearGradient id="paint2_linear_151_2624" x1="112.542" y1="489.8" x2="112.542" y2="315.435" gradientUnits="userSpaceOnUse">
<stop stop-color="#161616"/>
<stop offset="0.816" stop-color="#0179A3"/>
<stop offset="0.9224" stop-color="#01A4CC"/>
<stop offset="1" stop-color="#01C8EF"/>
</linearGradient>
<linearGradient id="paint3_linear_151_2624" x1="257.439" y1="489.8" x2="257.439" y2="315.435" gradientUnits="userSpaceOnUse">
<stop stop-color="#161616"/>
<stop offset="0.816" stop-color="#0179A3"/>
<stop offset="0.9224" stop-color="#01A4CC"/>
<stop offset="1" stop-color="#01C8EF"/>
</linearGradient>
<radialGradient id="paint4_radial_151_2624" cx="0" cy="0" r="1" gradientUnits="userSpaceOnUse" gradientTransform="translate(185.501 158.882) scale(132.499 132.466)">
<stop stop-color="#F8359E"/>
<stop offset="0.0428" stop-color="#E63192"/>
<stop offset="0.1941" stop-color="#681140"/>
<stop offset="1" stop-color="#161616"/>
</radialGradient>
<linearGradient id="paint5_linear_151_2624" x1="89.5379" y1="321.588" x2="210.348" y2="321.588" gradientUnits="userSpaceOnUse">
<stop stop-color="#01C8EF"/>
<stop offset="0.1297" stop-color="#04B1DD"/>
<stop offset="0.5466" stop-color="#0E6BA7"/>
<stop offset="0.8476" stop-color="#154085"/>
<stop offset="1" stop-color="#172F78"/>
</linearGradient>
<radialGradient id="paint6_radial_151_2624" cx="0" cy="0" r="1" gradientUnits="userSpaceOnUse" gradientTransform="translate(68.1157 231.02) scale(269.794 269.726)">
<stop stop-color="#01C8EF"/>
<stop offset="0.1396" stop-color="#03BAE4"/>
<stop offset="0.4033" stop-color="#0895C8"/>
<stop offset="0.76" stop-color="#115A9A"/>
<stop offset="1" stop-color="#172F78"/>
</radialGradient>
<linearGradient id="paint7_linear_151_2624" x1="89.5379" y1="257.455" x2="210.348" y2="257.455" gradientUnits="userSpaceOnUse">
<stop stop-color="#01C8EF"/>
<stop offset="0.1297" stop-color="#04B1DD"/>
<stop offset="0.5466" stop-color="#0E6BA7"/>
<stop offset="0.8476" stop-color="#154085"/>
<stop offset="1" stop-color="#172F78"/>
</linearGradient>
<radialGradient id="paint8_radial_151_2624" cx="0" cy="0" r="1" gradientUnits="userSpaceOnUse" gradientTransform="translate(68.1157 166.887) scale(269.794 269.726)">
<stop stop-color="#01C8EF"/>
<stop offset="0.1396" stop-color="#03BAE4"/>
<stop offset="0.4033" stop-color="#0895C8"/>
<stop offset="0.76" stop-color="#115A9A"/>
<stop offset="1" stop-color="#172F78"/>
</radialGradient>
<linearGradient id="paint9_linear_151_2624" x1="89.5379" y1="193.322" x2="210.348" y2="193.322" gradientUnits="userSpaceOnUse">
<stop stop-color="#01C8EF"/>
<stop offset="0.1297" stop-color="#04B1DD"/>
<stop offset="0.5466" stop-color="#0E6BA7"/>
<stop offset="0.8476" stop-color="#154085"/>
<stop offset="1" stop-color="#172F78"/>
</linearGradient>
<radialGradient id="paint10_radial_151_2624" cx="0" cy="0" r="1" gradientUnits="userSpaceOnUse" gradientTransform="translate(68.1157 102.754) scale(269.794 269.726)">
<stop stop-color="#01C8EF"/>
<stop offset="0.1396" stop-color="#03BAE4"/>
<stop offset="0.4033" stop-color="#0895C8"/>
<stop offset="0.76" stop-color="#115A9A"/>
<stop offset="1" stop-color="#172F78"/>
</radialGradient>
<radialGradient id="paint11_radial_151_2624" cx="0" cy="0" r="1" gradientUnits="userSpaceOnUse" gradientTransform="translate(91.9227 119.007) scale(185.493 185.446)">
<stop stop-color="#F9636B"/>
<stop offset="1" stop-color="#B6246E"/>
</radialGradient>
<clipPath id="clip0_151_2624">
<rect width="374" height="489" fill="white" transform="translate(0 0.806396)"/>
</clipPath>
</defs>
</svg>
