<svg width="254" height="181" viewBox="0 0 254 181" fill="none" xmlns="http://www.w3.org/2000/svg">
<path d="M220.943 68.9849L211.916 70.5702L148.416 33.8662C145.77 32.3369 141.15 32.5327 138.104 34.2952L15.8625 104.952L0.00830078 107.731V112.897H0.0176143C-0.0103309 113.886 0.567202 114.837 1.79679 115.546L72.5353 156.427C75.1807 157.956 79.801 157.761 82.847 155.998L218.428 77.6387C220.095 76.6782 220.943 75.4472 220.943 74.2816H220.952V68.9849H220.943Z" fill="#312A91"/>
<path opacity="0.5" d="M220.943 68.9849L211.916 70.5702L148.416 33.8662C145.77 32.3369 141.15 32.5327 138.104 34.2952L15.8625 104.952L0.00830078 107.731V112.897H0.0176143C-0.0103309 113.886 0.567202 114.837 1.79679 115.546L72.5353 156.427C75.1807 157.956 79.801 157.761 82.847 155.998L218.428 77.6387C220.095 76.6782 220.943 75.4472 220.943 74.2816H220.952V68.9849H220.943Z" fill="url(#paint0_radial_336_251)"/>
<path d="M218.419 74.4502L82.8382 152.81C79.7829 154.572 75.172 154.768 72.5265 153.239L1.788 112.357C0.567732 111.648 -0.00980134 110.697 0.00882876 109.709H-0.000488281V111.061H0.00882876C-0.0191164 112.049 0.558416 113.001 1.788 113.709L72.5265 154.591C75.172 156.12 79.7922 155.924 82.8382 154.162L218.419 75.8024C220.086 74.8419 220.934 73.6109 220.934 72.4453H220.943V71.0931H220.934C220.934 72.2681 220.086 73.4897 218.419 74.4502Z" fill="url(#paint1_radial_336_251)"/>
<path d="M72.5252 151.159L1.78671 110.278C-0.858768 108.748 -0.523428 106.081 2.52259 104.319L138.103 25.9593C141.158 24.1969 145.769 24.001 148.415 25.5304L219.153 66.412C221.799 67.9413 221.463 70.6083 218.408 72.3708L82.8276 150.73C79.7909 152.502 75.1707 152.689 72.5252 151.159Z" fill="#312A91"/>
<path opacity="0.7" d="M72.5252 151.159L1.78671 110.278C-0.858768 108.748 -0.523428 106.081 2.52259 104.319L138.103 25.9593C141.158 24.1969 145.769 24.001 148.415 25.5304L219.153 66.412C221.799 67.9413 221.463 70.6083 218.408 72.3708L82.8276 150.73C79.7909 152.502 75.1707 152.689 72.5252 151.159Z" fill="url(#paint2_linear_336_251)"/>
<g opacity="0.4">
<path opacity="0.5" d="M220.944 67.9124L211.918 69.4977L148.417 32.7938C145.772 31.2645 141.151 31.4603 138.105 33.2228L15.864 103.88L0.00976562 106.659V107.628H0.0190791C-0.00886604 108.617 0.568667 109.568 1.79825 110.277L72.5367 151.158C75.1822 152.688 79.8025 152.492 82.8485 150.729L218.429 72.3699C220.096 71.4094 220.944 70.1785 220.944 69.0128H220.953V67.9124H220.944Z" fill="url(#paint3_radial_336_251)"/>
<path opacity="0.7" d="M72.5276 150.087L1.78915 109.206C-0.856326 107.676 -0.520987 105.009 2.52503 103.247L138.106 24.8872C141.161 23.1248 145.772 22.929 148.417 24.4583L219.156 65.3399C221.801 66.8692 221.466 69.5362 218.411 71.2987L82.8301 149.658C79.7934 151.421 75.1731 151.616 72.5276 150.087Z" fill="url(#paint4_radial_336_251)"/>
<path d="M72.5276 150.087L1.78915 109.206C-0.856326 107.676 -0.520987 105.009 2.52503 103.247L138.106 24.8872C141.161 23.1248 145.772 22.929 148.417 24.4583L219.156 65.3399C221.801 66.8692 221.466 69.5362 218.411 71.2987L82.8301 149.658C79.7934 151.421 75.1731 151.616 72.5276 150.087Z" fill="#312A91"/>
</g>
<path d="M39.6729 134.896C39.6729 135.521 39.291 135.81 38.8252 135.54L33.2735 132.332C32.8077 132.061 32.4258 131.334 32.4258 130.709C32.4258 130.085 32.8077 129.795 33.2735 130.066L38.8252 133.274C39.3003 133.544 39.6729 134.272 39.6729 134.896Z" fill="#180D5B"/>
<path d="M55.2481 143.895C55.2481 144.399 54.8941 144.604 54.4563 144.352C54.0185 144.101 53.6646 143.485 53.6646 142.972C53.6646 142.469 54.0185 142.263 54.4563 142.515C54.8941 142.776 55.2481 143.392 55.2481 143.895Z" fill="#180D5B"/>
<path d="M58.377 145.703C58.377 146.207 58.023 146.412 57.5852 146.16C57.1474 145.908 56.7935 145.293 56.7935 144.78C56.7935 144.277 57.1474 144.071 57.5852 144.323C58.023 144.584 58.377 145.2 58.377 145.703Z" fill="#180D5B"/>
<path d="M61.5069 147.513C61.5069 148.016 61.1529 148.222 60.7151 147.97C60.2773 147.718 59.9233 147.103 59.9233 146.59C59.9233 146.077 60.2773 145.881 60.7151 146.133C61.1529 146.394 61.5069 147.009 61.5069 147.513Z" fill="#180D5B"/>
<path d="M12.1832 119.007C12.1832 119.51 11.8292 119.716 11.3914 119.464C10.9536 119.212 10.5996 118.597 10.5996 118.084C10.5996 117.571 10.9536 117.375 11.3914 117.627C11.8292 117.888 12.1832 118.503 12.1832 119.007Z" fill="#180D5B"/>
<path d="M15.3131 120.815C15.3131 121.319 14.9591 121.524 14.5213 121.272C14.0835 121.02 13.7295 120.405 13.7295 119.892C13.7295 119.379 14.0835 119.183 14.5213 119.435C14.9591 119.696 15.3131 120.312 15.3131 120.815Z" fill="#180D5B"/>
<path d="M18.4429 122.625C18.4429 123.129 18.089 123.334 17.6512 123.082C17.2133 122.83 16.8594 122.215 16.8594 121.702C16.8594 121.199 17.2133 120.993 17.6512 121.245C18.089 121.506 18.4429 122.122 18.4429 122.625Z" fill="#180D5B"/>
<path opacity="0.5" d="M72.5276 150.087L1.78915 109.206C-0.856326 107.676 -0.520987 105.009 2.52503 103.247L138.106 24.8872C141.161 23.1248 145.772 22.929 148.417 24.4583L219.156 65.3399C221.801 66.8692 221.466 69.5362 218.411 71.2987L82.8301 149.658C79.7934 151.421 75.1731 151.616 72.5276 150.087Z" fill="url(#paint5_radial_336_251)"/>
<path opacity="0.5" d="M72.5276 150.087L1.78915 109.206C-0.856326 107.676 -0.520987 105.009 2.52503 103.247L138.106 24.8872C141.161 23.1248 145.772 22.929 148.417 24.4583L219.156 65.3399C221.801 66.8692 221.466 69.5362 218.411 71.2987L82.8301 149.658C79.7934 151.421 75.1731 151.616 72.5276 150.087Z" fill="url(#paint6_radial_336_251)"/>
<path opacity="0.9" d="M73.7559 150.04L3.01744 109.159C0.148402 107.415 -0.363925 105.587 3.75333 103.2L139.334 24.8403C140.703 24.0477 142.399 23.5721 144.085 23.4322C142.017 23.4136 139.818 23.8985 138.114 24.8869L2.53306 103.237C-0.522278 105 -0.848306 107.667 1.79717 109.196L72.5356 150.077C73.9888 150.917 76.0381 151.234 78.1061 151.057C76.4666 151.047 74.9203 150.712 73.7559 150.04Z" fill="url(#paint7_radial_336_251)"/>
<path opacity="0.5" d="M30.9345 115.033L12.8447 104.58L37.3713 90.4146L55.4611 100.868L30.9345 115.033Z" fill="#5CFFF3"/>
<path d="M40.8551 95.7863L36.7285 93.4084L37.5296 92.9421L41.6562 95.3294L40.8551 95.7863Z" fill="#88FFF3"/>
<path d="M44.0209 97.6238L42.1206 96.5234L42.9124 96.0571L44.822 97.1575L44.0209 97.6238Z" fill="#88FFF3"/>
<path d="M50.2721 101.232L45.2886 98.3503L46.0804 97.8934L51.0639 100.775L50.2721 101.232Z" fill="#88FFF3"/>
<path d="M39.0841 96.8117L34.9575 94.4338L35.7586 93.9675L39.8759 96.3548L39.0841 96.8117Z" fill="#88FFF3"/>
<path d="M42.2519 98.6497L40.3423 97.5493L41.1434 97.0831L43.0437 98.1834L42.2519 98.6497Z" fill="#88FFF3"/>
<path d="M48.5007 102.257L43.5078 99.3756L44.3089 98.9094L49.2925 101.791L48.5007 102.257Z" fill="#88FFF3"/>
<path d="M37.3043 97.8386L33.187 95.4607L33.9881 94.9944L38.1054 97.3817L37.3043 97.8386Z" fill="#88FFF3"/>
<path d="M40.4809 99.6653L38.5713 98.5649L39.3724 98.108L41.2726 99.2083L40.4809 99.6653Z" fill="#88FFF3"/>
<path d="M46.7228 103.283L41.7393 100.402L42.5404 99.9357L47.5239 102.817L46.7228 103.283Z" fill="#88FFF3"/>
<path d="M35.5357 98.8631L31.4185 96.4852L32.2102 96.0189L36.3368 98.4062L35.5357 98.8631Z" fill="#88FFF3"/>
<path d="M38.702 100.692L36.8018 99.5913L37.5935 99.1344L39.5031 100.235L38.702 100.692Z" fill="#88FFF3"/>
<path d="M44.9513 104.309L39.9678 101.428L40.7596 100.962L45.7524 103.843L44.9513 104.309Z" fill="#88FFF3"/>
<path d="M33.7652 99.889L29.6387 97.5017L30.4398 97.0448L34.557 99.4227L33.7652 99.889Z" fill="#88FFF3"/>
<path d="M36.933 101.718L35.0234 100.617L35.8245 100.16L37.7341 101.261L36.933 101.718Z" fill="#88FFF3"/>
<path d="M43.1828 105.326L38.1899 102.444L38.991 101.987L43.9746 104.869L43.1828 105.326Z" fill="#88FFF3"/>
<path d="M31.9854 100.915L27.8682 98.5277L28.6693 98.0707L32.7865 100.449L31.9854 100.915Z" fill="#88FFF3"/>
<path d="M35.162 102.742L33.2524 101.642L34.0535 101.185L35.9538 102.285L35.162 102.742Z" fill="#88FFF3"/>
<path d="M41.404 106.352L36.4204 103.47L37.2215 103.013L42.2051 105.895L41.404 106.352Z" fill="#88FFF3"/>
<path d="M30.2169 101.941L26.0996 99.5541L26.8914 99.0972L31.018 101.475L30.2169 101.941Z" fill="#88FFF3"/>
<path d="M33.3842 103.769L31.4839 102.668L32.2757 102.202L34.1852 103.312L33.3842 103.769Z" fill="#88FFF3"/>
<path d="M39.6335 107.377L34.6499 104.496L35.451 104.039L40.4346 106.92L39.6335 107.377Z" fill="#88FFF3"/>
<path d="M28.4454 102.957L24.3188 100.579L25.1199 100.122L29.2465 102.5L28.4454 102.957Z" fill="#88FFF3"/>
<path d="M31.6142 104.794L29.7046 103.693L30.5057 103.227L32.4153 104.327L31.6142 104.794Z" fill="#88FFF3"/>
<path d="M37.8634 108.404L32.8799 105.522L33.6717 105.065L38.6552 107.947L37.8634 108.404Z" fill="#88FFF3"/>
<path d="M26.6759 103.983L22.5493 101.605L23.3504 101.139L27.4677 103.526L26.6759 103.983Z" fill="#88FFF3"/>
<path d="M29.8432 105.82L27.9336 104.719L28.7347 104.253L30.635 105.353L29.8432 105.82Z" fill="#88FFF3"/>
<path d="M36.0935 109.429L31.1006 106.547L31.9017 106.09L36.8852 108.972L36.0935 109.429Z" fill="#88FFF3"/>
<path d="M24.897 105.009L20.7798 102.631L21.5809 102.164L25.6981 104.552L24.897 105.009Z" fill="#88FFF3"/>
<path d="M28.0643 106.846L26.1641 105.736L26.9652 105.279L28.8654 106.379L28.0643 106.846Z" fill="#88FFF3"/>
<path d="M34.3156 110.454L29.332 107.573L30.1331 107.107L35.1167 109.988L34.3156 110.454Z" fill="#88FFF3"/>
<path d="M23.1285 106.035L19.0112 103.657L19.803 103.191L23.9296 105.578L23.1285 106.035Z" fill="#88FFF3"/>
<path d="M26.2938 107.862L24.3936 106.762L25.1853 106.305L27.0949 107.405L26.2938 107.862Z" fill="#88FFF3"/>
<path d="M32.5446 111.48L27.561 108.599L28.3528 108.133L33.3457 111.014L32.5446 111.48Z" fill="#88FFF3"/>
<path d="M21.358 107.06L17.2314 104.673L18.0325 104.216L22.1498 106.594L21.358 107.06Z" fill="#88FFF3"/>
<path d="M24.5243 108.888L22.6147 107.788L23.4158 107.331L25.3254 108.431L24.5243 108.888Z" fill="#88FFF3"/>
<path d="M30.7746 112.506L25.7817 109.625L26.5828 109.159L31.5664 112.04L30.7746 112.506Z" fill="#88FFF3"/>
<path opacity="0.5" d="M55.9184 129.478L37.8286 119.015L62.3458 104.85L80.4356 115.304L55.9184 129.478Z" fill="#5CFFF3"/>
<path d="M65.8287 110.232L61.7114 107.845L62.5125 107.388L66.6298 109.766L65.8287 110.232Z" fill="#88FFF3"/>
<path d="M69.0053 112.06L67.0957 110.96L67.8968 110.494L69.7971 111.594L69.0053 112.06Z" fill="#88FFF3"/>
<path d="M75.2467 115.668L70.2632 112.787L71.0643 112.33L76.0478 115.211L75.2467 115.668Z" fill="#88FFF3"/>
<path d="M64.0596 111.248L59.9424 108.871L60.7342 108.414L64.8607 110.792L64.0596 111.248Z" fill="#88FFF3"/>
<path d="M67.2274 113.086L65.3271 111.985L66.1189 111.519L68.0285 112.62L67.2274 113.086Z" fill="#88FFF3"/>
<path d="M73.4762 116.695L68.4927 113.813L69.2938 113.356L74.2773 116.238L73.4762 116.695Z" fill="#88FFF3"/>
<path d="M62.2896 112.275L58.1631 109.897L58.9642 109.431L63.0814 111.818L62.2896 112.275Z" fill="#88FFF3"/>
<path d="M65.457 114.111L63.5474 113.011L64.3485 112.545L66.258 113.645L65.457 114.111Z" fill="#88FFF3"/>
<path d="M71.7077 117.721L66.7241 114.839L67.5159 114.373L72.4994 117.254L71.7077 117.721Z" fill="#88FFF3"/>
<path d="M60.5201 113.3L56.3936 110.922L57.1946 110.456L61.3119 112.843L60.5201 113.3Z" fill="#88FFF3"/>
<path d="M63.6874 115.138L61.7778 114.028L62.5789 113.571L64.4792 114.671L63.6874 115.138Z" fill="#88FFF3"/>
<path d="M69.9362 118.746L64.9434 115.864L65.7445 115.398L70.728 118.279L69.9362 118.746Z" fill="#88FFF3"/>
<path d="M58.7398 114.326L54.6226 111.948L55.4143 111.482L59.5409 113.869L58.7398 114.326Z" fill="#88FFF3"/>
<path d="M61.9086 116.154L60.0083 115.054L60.8001 114.597L62.7097 115.697L61.9086 116.154Z" fill="#88FFF3"/>
<path d="M68.1583 119.771L63.1748 116.89L63.9759 116.424L68.9594 119.305L68.1583 119.771Z" fill="#88FFF3"/>
<path d="M56.9703 115.353L52.853 112.965L53.6448 112.508L57.7714 114.886L56.9703 115.353Z" fill="#88FFF3"/>
<path d="M60.1376 117.18L58.2373 116.079L59.0291 115.622L60.9387 116.723L60.1376 117.18Z" fill="#88FFF3"/>
<path d="M66.3879 120.798L61.4043 117.916L62.1961 117.45L67.1889 120.332L66.3879 120.798Z" fill="#88FFF3"/>
<path d="M55.2013 116.378L51.0747 113.991L51.8758 113.534L55.9931 115.912L55.2013 116.378Z" fill="#88FFF3"/>
<path d="M58.3686 118.206L56.459 117.106L57.2601 116.649L59.1603 117.749L58.3686 118.206Z" fill="#88FFF3"/>
<path d="M64.6193 121.814L59.6265 118.933L60.4276 118.476L65.4111 121.357L64.6193 121.814Z" fill="#88FFF3"/>
<path d="M53.42 117.403L49.3027 115.016L50.1038 114.559L54.2211 116.937L53.42 117.403Z" fill="#88FFF3"/>
<path d="M56.5981 119.231L54.6885 118.131L55.4896 117.665L57.3898 118.774L56.5981 119.231Z" fill="#88FFF3"/>
<path d="M62.8395 122.84L57.856 119.959L58.6571 119.502L63.6406 122.383L62.8395 122.84Z" fill="#88FFF3"/>
<path d="M51.6524 118.42L47.5352 116.043L48.3269 115.586L52.4535 117.963L51.6524 118.42Z" fill="#88FFF3"/>
<path d="M54.8187 120.257L52.9185 119.156L53.7102 118.69L55.6198 119.791L54.8187 120.257Z" fill="#88FFF3"/>
<path d="M61.069 123.866L56.0854 120.984L56.8772 120.527L61.8701 123.409L61.069 123.866Z" fill="#88FFF3"/>
<path d="M49.881 119.445L45.7544 117.067L46.5555 116.601L50.6727 118.988L49.881 119.445Z" fill="#88FFF3"/>
<path d="M53.0497 121.283L51.1401 120.183L51.9412 119.717L53.8508 120.817L53.0497 121.283Z" fill="#88FFF3"/>
<path d="M59.3005 124.891L54.3169 122.01L55.1087 121.553L60.0922 124.434L59.3005 124.891Z" fill="#88FFF3"/>
<path d="M48.1134 120.471L43.9868 118.093L44.7879 117.627L48.9052 120.014L48.1134 120.471Z" fill="#88FFF3"/>
<path d="M51.2802 122.308L49.3706 121.198L50.1717 120.742L52.072 121.842L51.2802 122.308Z" fill="#88FFF3"/>
<path d="M57.5197 125.917L52.5361 123.035L53.3372 122.569L58.3208 125.45L57.5197 125.917Z" fill="#88FFF3"/>
<path d="M46.3336 121.497L42.2163 119.119L43.0081 118.653L47.1347 121.04L46.3336 121.497Z" fill="#88FFF3"/>
<path d="M49.5009 123.325L47.6006 122.224L48.3924 121.767L50.302 122.868L49.5009 123.325Z" fill="#88FFF3"/>
<path d="M55.7521 126.942L50.7686 124.061L51.5696 123.595L56.5532 126.476L55.7521 126.942Z" fill="#88FFF3"/>
<path opacity="0.5" d="M80.8911 143.914L62.8013 133.461L87.3278 119.287L105.418 129.74L80.8911 143.914Z" fill="#5CFFF3"/>
<path d="M90.8135 124.667L86.6963 122.28L87.4881 121.823L91.6146 124.201L90.8135 124.667Z" fill="#88FFF3"/>
<path d="M93.9799 126.495L92.0796 125.394L92.8714 124.937L94.7809 126.038L93.9799 126.495Z" fill="#88FFF3"/>
<path d="M100.23 130.103L95.2466 127.222L96.0384 126.765L101.031 129.646L100.23 130.103Z" fill="#88FFF3"/>
<path d="M89.0431 125.693L84.9165 123.306L85.7176 122.849L89.8348 125.227L89.0431 125.693Z" fill="#88FFF3"/>
<path d="M92.2109 127.521L90.3013 126.421L91.1024 125.954L93.0026 127.064L92.2109 127.521Z" fill="#88FFF3"/>
<path d="M98.4597 131.129L93.4668 128.247L94.2679 127.791L99.2514 130.672L98.4597 131.129Z" fill="#88FFF3"/>
<path d="M87.2633 126.709L83.146 124.331L83.9471 123.874L88.0643 126.252L87.2633 126.709Z" fill="#88FFF3"/>
<path d="M90.4399 128.545L88.5303 127.445L89.3314 126.979L91.2316 128.079L90.4399 128.545Z" fill="#88FFF3"/>
<path d="M96.6808 132.156L91.6973 129.274L92.4984 128.817L97.4819 131.699L96.6808 132.156Z" fill="#88FFF3"/>
<path d="M85.4937 127.735L81.3765 125.357L82.1682 124.891L86.2948 127.278L85.4937 127.735Z" fill="#88FFF3"/>
<path d="M88.66 129.572L86.7598 128.472L87.5516 128.006L89.4611 129.106L88.66 129.572Z" fill="#88FFF3"/>
<path d="M94.9113 133.181L89.9277 130.299L90.7195 129.842L95.7124 132.724L94.9113 133.181Z" fill="#88FFF3"/>
<path d="M83.7233 128.761L79.5967 126.383L80.3978 125.917L84.515 128.304L83.7233 128.761Z" fill="#88FFF3"/>
<path d="M86.892 130.598L84.9824 129.488L85.7835 129.032L87.6931 130.132L86.892 130.598Z" fill="#88FFF3"/>
<path d="M93.1413 134.207L88.1577 131.325L88.9495 130.859L93.933 133.74L93.1413 134.207Z" fill="#88FFF3"/>
<path d="M81.9454 129.787L77.8281 127.409L78.6292 126.942L82.7465 129.33L81.9454 129.787Z" fill="#88FFF3"/>
<path d="M85.12 131.614L83.2104 130.514L84.0115 130.057L85.9118 131.157L85.12 131.614Z" fill="#88FFF3"/>
<path d="M91.362 135.233L86.3784 132.351L87.1795 131.885L92.1631 134.766L91.362 135.233Z" fill="#88FFF3"/>
<path d="M80.1759 130.812L76.0586 128.425L76.8504 127.968L80.977 130.346L80.1759 130.812Z" fill="#88FFF3"/>
<path d="M83.3422 132.641L81.4419 131.54L82.2337 131.083L84.1433 132.184L83.3422 132.641Z" fill="#88FFF3"/>
<path d="M89.5934 136.259L84.6099 133.377L85.411 132.911L90.3945 135.793L89.5934 136.259Z" fill="#88FFF3"/>
<path d="M78.4044 131.838L74.2778 129.451L75.0789 128.994L79.2055 131.372L78.4044 131.838Z" fill="#88FFF3"/>
<path d="M81.5722 133.667L79.6626 132.566L80.4637 132.109L82.3733 133.21L81.5722 133.667Z" fill="#88FFF3"/>
<path d="M87.8224 137.275L82.8389 134.394L83.6306 133.937L88.6142 136.819L87.8224 137.275Z" fill="#88FFF3"/>
<path d="M76.6359 132.864L72.5093 130.477L73.3104 130.02L77.4276 132.398L76.6359 132.864Z" fill="#88FFF3"/>
<path d="M79.8031 134.691L77.8936 133.591L78.6946 133.125L80.5949 134.234L79.8031 134.691Z" fill="#88FFF3"/>
<path d="M86.0524 138.3L81.0596 135.418L81.8607 134.961L86.8442 137.843L86.0524 138.3Z" fill="#88FFF3"/>
<path d="M74.856 133.881L70.7388 131.504L71.5399 131.047L75.6571 133.425L74.856 133.881Z" fill="#88FFF3"/>
<path d="M78.0233 135.717L76.123 134.617L76.9241 134.151L78.8244 135.251L78.0233 135.717Z" fill="#88FFF3"/>
<path d="M84.2746 139.326L79.291 136.445L80.0921 135.988L85.0757 138.869L84.2746 139.326Z" fill="#88FFF3"/>
<path d="M73.0875 134.906L68.9702 132.528L69.762 132.062L73.8886 134.449L73.0875 134.906Z" fill="#88FFF3"/>
<path d="M76.2538 136.743L74.3535 135.643L75.1453 135.177L77.0549 136.277L76.2538 136.743Z" fill="#88FFF3"/>
<path d="M82.5036 140.352L77.52 137.47L78.3118 137.013L83.3047 139.895L82.5036 140.352Z" fill="#88FFF3"/>
<path d="M71.316 135.932L67.1895 133.554L67.9905 133.088L72.1078 135.475L71.316 135.932Z" fill="#88FFF3"/>
<path d="M74.4833 137.769L72.5737 136.659L73.3748 136.202L75.2844 137.302L74.4833 137.769Z" fill="#88FFF3"/>
<path d="M80.7355 141.378L75.7427 138.496L76.5438 138.03L81.5273 140.911L80.7355 141.378Z" fill="#88FFF3"/>
<path opacity="0.5" d="M91.4694 98.1573L71.269 109.851L71.5255 110.295L91.7259 98.6013L91.4694 98.1573Z" fill="#5CFFF3"/>
<path opacity="0.5" d="M96.495 124.732L96.2435 124.285L107.217 117.943L57.3532 89.1193L46.1099 95.6096L45.8491 95.162L57.3532 88.5225L57.4743 88.5971L108.251 117.943L96.495 124.732Z" fill="#5CFFF3"/>
<path d="M120.369 144.753C120.322 144.753 120.266 144.744 120.22 144.716L109.545 138.543C109.405 138.459 109.358 138.282 109.442 138.142C109.526 138.002 109.703 137.955 109.843 138.03L120.518 144.203C120.657 144.287 120.704 144.464 120.62 144.604C120.564 144.697 120.471 144.753 120.369 144.753Z" fill="#88FFF3"/>
<path d="M165.966 118.241C165.92 118.241 165.864 118.232 165.817 118.204L155.142 112.031C155.003 111.947 154.956 111.77 155.04 111.63C155.124 111.49 155.301 111.443 155.44 111.518L166.115 117.691C166.255 117.775 166.302 117.952 166.218 118.092C166.171 118.195 166.069 118.241 165.966 118.241Z" fill="#88FFF3"/>
<path d="M210.892 92.2711C210.846 92.2711 210.79 92.2617 210.743 92.2338L200.068 86.0605C199.928 85.9766 199.882 85.7994 199.966 85.6595C200.049 85.5196 200.226 85.473 200.366 85.5569L211.041 91.7302C211.181 91.8141 211.227 91.9913 211.144 92.1312C211.088 92.2151 210.985 92.2711 210.892 92.2711Z" fill="#88FFF3"/>
<path opacity="0.3" d="M174.573 153.631L154.099 141.798C152.543 140.902 152.739 139.326 154.536 138.291L174.145 126.961C175.942 125.926 178.662 125.814 180.218 126.709L200.693 138.543C202.248 139.438 202.053 141.014 200.255 142.049L180.647 153.379C178.849 154.424 176.129 154.536 174.573 153.631Z" fill="#0B0244"/>
<path d="M207.595 130.849V126.102H195.355L180.889 117.737C178.961 116.618 175.589 116.758 173.353 118.054L159.427 126.102H147.178V131.119H147.187C147.131 131.874 147.55 132.602 148.482 133.143L173.893 147.83C175.822 148.949 179.194 148.809 181.429 147.513L205.76 133.45C207.046 132.704 207.67 131.744 207.595 130.849Z" fill="#312A91"/>
<path opacity="0.5" d="M207.595 130.849V126.102H195.355L180.889 117.737C178.961 116.618 175.589 116.758 173.353 118.054L159.427 126.102H147.178V131.119H147.187C147.131 131.874 147.55 132.602 148.482 133.143L173.893 147.83C175.822 148.949 179.194 148.809 181.429 147.513L205.76 133.45C207.046 132.704 207.67 131.744 207.595 130.849Z" fill="url(#paint8_linear_336_251)"/>
<path d="M180.889 117.739C179.958 117.198 178.7 116.955 177.387 116.993V148.577C178.803 148.54 180.265 148.185 181.429 147.514L205.76 133.452C207.046 132.706 207.67 131.745 207.595 130.85V126.103H195.355L180.889 117.739Z" fill="url(#paint9_linear_336_251)"/>
<path d="M173.894 142.814L148.482 128.127C146.554 127.008 146.796 125.059 149.023 123.772L173.353 109.709C175.58 108.423 178.952 108.283 180.889 109.392L206.301 124.08C208.229 125.199 207.987 127.148 205.761 128.434L181.43 142.497C179.203 143.784 175.822 143.924 173.894 142.814Z" fill="#312A91"/>
<path opacity="0.5" d="M173.894 142.814L148.482 128.127C146.554 127.008 146.796 125.059 149.023 123.772L173.353 109.709C175.58 108.423 178.952 108.283 180.889 109.392L206.301 124.08C208.229 125.199 207.987 127.148 205.761 128.434L181.43 142.497C179.203 143.784 175.822 143.924 173.894 142.814Z" fill="url(#paint10_linear_336_251)"/>
<path d="M174.573 139.559L154.099 127.726C152.543 126.831 152.739 125.255 154.536 124.22L174.145 112.889C175.942 111.854 178.662 111.742 180.218 112.638L200.693 124.471C202.248 125.367 202.053 126.942 200.255 127.978L180.647 139.308C178.849 140.352 176.129 140.464 174.573 139.559Z" fill="#5CFFF3"/>
<path d="M154.537 125.759L174.145 114.429C175.943 113.394 178.663 113.282 180.218 114.177L200.693 126.011C201.075 126.234 201.354 126.496 201.522 126.785C201.969 125.955 201.718 125.069 200.693 124.481L180.218 112.648C178.663 111.752 175.943 111.864 174.145 112.899L154.537 124.229C153.186 125.013 152.739 126.095 153.27 126.971C153.503 126.523 153.922 126.113 154.537 125.759Z" fill="#42E8E0"/>
<path opacity="0.5" d="M174.751 142.814L149.34 128.127C147.412 127.008 146.946 125.376 149.88 123.772L174.211 109.71C175.31 109.075 176.679 108.721 178.021 108.656C176.428 108.581 174.686 108.936 173.354 109.71L149.023 123.772C146.797 125.059 146.555 127.008 148.483 128.127L173.894 142.814C174.872 143.383 176.232 143.625 177.62 143.551C176.54 143.504 175.524 143.262 174.751 142.814Z" fill="url(#paint11_linear_336_251)"/>
<path opacity="0.5" d="M205.76 130.551L181.429 144.613C179.203 145.9 175.831 146.04 173.893 144.93L148.482 130.243C147.55 129.702 147.131 128.975 147.187 128.22H147.178V129.264H147.187C147.131 130.019 147.55 130.747 148.482 131.288L173.893 145.975C175.822 147.094 179.194 146.954 181.429 145.658L205.76 131.595C207.046 130.849 207.67 129.889 207.595 128.994V127.949C207.67 128.844 207.046 129.814 205.76 130.551Z" fill="url(#paint12_linear_336_251)"/>
<path opacity="0.6" d="M220.34 127.183L199.865 115.35C198.31 114.454 198.505 112.878 200.303 111.843L219.911 100.513C221.709 99.4781 224.429 99.3662 225.985 100.261L246.459 112.095C248.015 112.99 247.819 114.566 246.021 115.601L226.413 126.931C224.606 127.976 221.895 128.088 220.34 127.183Z" fill="url(#paint13_linear_336_251)"/>
<path d="M253.362 104.401V99.6541H241.122L226.655 91.2894C224.727 90.1704 221.355 90.3102 219.12 91.6064L205.194 99.6541H192.944V104.671H192.954C192.898 105.426 193.317 106.154 194.248 106.695L219.66 121.382C221.588 122.501 224.96 122.361 227.196 121.065L251.527 107.002C252.812 106.256 253.427 105.296 253.362 104.401Z" fill="#312A91"/>
<path opacity="0.5" d="M253.362 104.401V99.6541H241.122L226.655 91.2894C224.727 90.1704 221.355 90.3102 219.12 91.6064L205.194 99.6541H192.944V104.671H192.954C192.898 105.426 193.317 106.154 194.248 106.695L219.66 121.382C221.588 122.501 224.96 122.361 227.196 121.065L251.527 107.002C252.812 106.256 253.427 105.296 253.362 104.401Z" fill="url(#paint14_linear_336_251)"/>
<path d="M226.646 91.2908C225.715 90.75 224.457 90.5075 223.144 90.5448V122.129C224.559 122.092 226.022 121.738 227.186 121.066L251.517 107.004C252.803 106.258 253.427 105.297 253.352 104.402V99.6555H241.112L226.646 91.2908Z" fill="url(#paint15_linear_336_251)"/>
<path d="M219.66 116.366L194.249 101.679C192.321 100.56 192.563 98.6108 194.789 97.3239L219.12 83.2615C221.346 81.9746 224.718 81.8347 226.656 82.9444L252.067 97.6316C253.996 98.7506 253.753 100.7 251.527 101.986L227.196 116.049C224.961 117.336 221.589 117.476 219.66 116.366Z" fill="#312A91"/>
<path opacity="0.5" d="M219.66 116.366L194.249 101.679C192.321 100.56 192.563 98.6108 194.789 97.3239L219.12 83.2615C221.346 81.9746 224.718 81.8347 226.656 82.9444L252.067 97.6316C253.996 98.7506 253.753 100.7 251.527 101.986L227.196 116.049C224.961 117.336 221.589 117.476 219.66 116.366Z" fill="url(#paint16_linear_336_251)"/>
<path d="M220.34 113.112L199.865 101.278C198.31 100.383 198.505 98.8067 200.303 97.7716L219.911 86.4415C221.709 85.4064 224.429 85.2945 225.985 86.1897L246.459 98.0234C248.015 98.9186 247.819 100.495 246.021 101.53L226.413 112.86C224.606 113.904 221.895 114.016 220.34 113.112Z" fill="#5CFFF3"/>
<path d="M200.293 99.3109L219.901 87.9808C221.699 86.9457 224.419 86.8338 225.975 87.729L246.449 99.5627C246.831 99.7865 247.111 100.048 247.278 100.337C247.725 99.5067 247.474 98.6208 246.449 98.0333L225.975 86.1997C224.419 85.3044 221.699 85.4164 219.901 86.4515L200.293 97.7815C198.942 98.5649 198.495 99.6466 199.026 100.523C199.259 100.076 199.678 99.6652 200.293 99.3109Z" fill="#42E8E0"/>
<path opacity="0.5" d="M220.508 116.365L195.097 101.678C193.168 100.559 192.703 98.9269 195.637 97.3229L219.968 83.2606C221.067 82.6265 222.436 82.2721 223.778 82.2068C222.185 82.1322 220.443 82.4866 219.111 83.2606L194.789 97.3136C192.563 98.6005 192.321 100.549 194.249 101.668L219.66 116.356C220.638 116.924 221.998 117.167 223.386 117.092C222.306 117.055 221.29 116.813 220.508 116.365Z" fill="url(#paint17_linear_336_251)"/>
<path opacity="0.5" d="M251.527 104.113L227.196 118.175C224.969 119.462 221.597 119.602 219.66 118.492L194.248 103.805C193.317 103.264 192.898 102.537 192.954 101.782H192.944V102.826H192.954C192.898 103.581 193.317 104.309 194.248 104.85L219.66 119.537C221.588 120.656 224.96 120.516 227.196 119.22L251.527 105.157C252.812 104.411 253.436 103.451 253.362 102.556V101.511C253.427 102.406 252.812 103.367 251.527 104.113Z" fill="url(#paint18_linear_336_251)"/>
<path opacity="0.3" d="M128.808 180.077L108.334 168.243C106.778 167.348 106.974 165.772 108.772 164.737L128.38 153.407C130.178 152.372 132.898 152.26 134.453 153.155L154.928 164.989C156.484 165.884 156.288 167.46 154.49 168.495L134.882 179.825C133.084 180.86 130.364 180.981 128.808 180.077Z" fill="#0B0244"/>
<path d="M161.83 157.296V152.549H149.591L135.124 144.184C133.196 143.065 129.824 143.205 127.588 144.501L113.662 152.549H101.413V157.566H101.422C101.367 158.321 101.786 159.049 102.717 159.59L128.129 174.277C130.057 175.396 133.429 175.256 135.665 173.96L159.995 159.897C161.281 159.151 161.905 158.191 161.83 157.296Z" fill="#312A91"/>
<path opacity="0.5" d="M161.83 157.296V152.549H149.591L135.124 144.184C133.196 143.065 129.824 143.205 127.588 144.501L113.662 152.549H101.413V157.566H101.422C101.367 158.321 101.786 159.049 102.717 159.59L128.129 174.277C130.057 175.396 133.429 175.256 135.665 173.96L159.995 159.897C161.281 159.151 161.905 158.191 161.83 157.296Z" fill="url(#paint19_linear_336_251)"/>
<path d="M135.124 144.184C134.192 143.643 132.935 143.401 131.621 143.438V175.022C133.037 174.985 134.499 174.631 135.664 173.959L159.995 159.897C161.28 159.151 161.904 158.19 161.83 157.295V152.549H149.59L135.124 144.184Z" fill="url(#paint20_linear_336_251)"/>
<path d="M128.137 169.25L102.725 154.563C100.797 153.444 101.039 151.495 103.266 150.208L127.597 136.146C129.823 134.859 133.195 134.719 135.132 135.829L160.544 150.516C162.472 151.635 162.23 153.584 160.004 154.871L135.673 168.933C133.437 170.23 130.065 170.369 128.137 169.25Z" fill="#312A91"/>
<path opacity="0.5" d="M128.137 169.25L102.725 154.563C100.797 153.444 101.039 151.495 103.266 150.208L127.597 136.146C129.823 134.859 133.195 134.719 135.132 135.829L160.544 150.516C162.472 151.635 162.23 153.584 160.004 154.871L135.673 168.933C133.437 170.23 130.065 170.369 128.137 169.25Z" fill="url(#paint21_linear_336_251)"/>
<path d="M128.808 166.005L108.334 154.171C106.778 153.276 106.974 151.7 108.772 150.665L128.38 139.335C130.178 138.299 132.898 138.188 134.453 139.083L154.928 150.916C156.484 151.812 156.288 153.388 154.49 154.423L134.882 165.753C133.084 166.797 130.364 166.909 128.808 166.005Z" fill="#5CFFF3"/>
<path d="M108.771 152.203L128.379 140.873C130.177 139.838 132.897 139.726 134.453 140.621L154.927 152.455C155.309 152.679 155.589 152.94 155.756 153.229C156.203 152.399 155.952 151.513 154.927 150.925L134.453 139.092C132.897 138.197 130.177 138.308 128.379 139.344L108.771 150.674C107.42 151.457 106.973 152.539 107.504 153.415C107.737 152.968 108.156 152.557 108.771 152.203Z" fill="#42E8E0"/>
<path opacity="0.5" d="M128.986 169.25L103.575 154.563C101.646 153.444 101.181 151.812 104.115 150.208L128.446 136.146C129.545 135.512 130.914 135.158 132.256 135.092C130.663 135.018 128.921 135.372 127.589 136.146L103.258 150.208C101.032 151.495 100.789 153.444 102.718 154.563L128.129 169.25C129.107 169.819 130.467 170.062 131.855 169.987C130.775 169.95 129.769 169.707 128.986 169.25Z" fill="url(#paint22_linear_336_251)"/>
<path opacity="0.5" d="M159.995 156.996L135.665 171.059C133.438 172.346 130.066 172.486 128.129 171.376L102.717 156.689C101.786 156.148 101.367 155.421 101.422 154.665H101.413V155.71H101.422C101.367 156.465 101.786 157.192 102.717 157.733L128.129 172.42C130.057 173.539 133.429 173.399 135.665 172.103L159.995 158.041C161.281 157.295 161.905 156.334 161.83 155.439V154.395C161.905 155.29 161.281 156.26 159.995 156.996Z" fill="url(#paint23_linear_336_251)"/>
<path d="M155.084 156.316C155.475 156.316 155.792 156.132 155.792 155.906C155.792 155.679 155.475 155.495 155.084 155.495C154.693 155.495 154.376 155.679 154.376 155.906C154.376 156.132 154.693 156.316 155.084 156.316Z" fill="#FCCC6B"/>
<path d="M157.151 154.712C157.431 154.871 157.431 155.132 157.151 155.29C156.872 155.449 156.425 155.449 156.145 155.29C155.866 155.132 155.866 154.871 156.145 154.712C156.425 154.554 156.872 154.554 157.151 154.712Z" fill="#FCCC6B"/>
<path d="M158.718 153.807C158.998 153.966 158.998 154.227 158.718 154.385C158.439 154.544 157.991 154.544 157.712 154.385C157.433 154.227 157.433 153.966 157.712 153.807C157.982 153.648 158.439 153.648 158.718 153.807Z" fill="#FCCC6B"/>
<path opacity="0.2" d="M200.31 74.6465C201.111 75.1128 201.111 75.8588 200.31 76.325C199.509 76.7913 198.205 76.7913 197.404 76.325C196.602 75.8588 196.602 75.1128 197.404 74.6465C198.205 74.1802 199.509 74.1802 200.31 74.6465Z" fill="#FCCC6B"/>
<path opacity="0.6" d="M204.837 72.0257C205.638 72.492 205.638 73.238 204.837 73.7043C204.036 74.1705 202.732 74.1705 201.93 73.7043C201.129 73.238 201.129 72.492 201.93 72.0257C202.732 71.5688 204.036 71.5688 204.837 72.0257Z" fill="#FCCC6B"/>
<path d="M209.355 69.4151C210.156 69.8813 210.156 70.6273 209.355 71.0936C208.554 71.5599 207.25 71.5599 206.448 71.0936C205.647 70.6273 205.647 69.8813 206.448 69.4151C207.259 68.9488 208.554 68.9488 209.355 69.4151Z" fill="#FCCC6B"/>
<path d="M115.049 110.473C113.152 110.473 111.264 110.059 109.819 109.231L74.6958 88.9385C73.2416 88.1006 72.4326 86.9545 72.4326 85.7314C72.4326 84.5083 73.232 83.3623 74.6958 82.5244L109.646 62.2035C112.526 60.5373 117.216 60.5373 120.095 62.2035L155.228 82.4859C156.683 83.3237 157.492 84.4698 157.492 85.6929C157.492 86.916 156.692 88.0621 155.228 88.8999L120.278 109.221C118.834 110.049 116.946 110.473 115.049 110.473ZM114.866 61.5967C113.094 61.5967 111.322 61.9916 109.964 62.762L75.0137 83.083C73.7617 83.8053 73.0779 84.7395 73.0779 85.7218C73.0779 86.7041 73.7617 87.6383 75.0137 88.3606L110.147 108.643C112.853 110.203 117.245 110.203 119.941 108.643L154.891 88.3221C156.143 87.5998 156.827 86.6656 156.827 85.6833C156.827 84.7009 156.143 83.7668 154.891 83.0445L119.758 62.762C118.41 61.9916 116.638 61.5967 114.866 61.5967Z" fill="#44B1C3"/>
<path d="M157.328 74.6081L157.318 57.7639L136.034 60.605L120.095 51.398C117.302 49.78 112.766 49.78 109.973 51.398L107.488 52.9774L72.9331 57.5906V74.6274C72.9331 74.637 72.9331 74.6467 72.9331 74.6563V74.7334H72.9427C72.9813 75.7638 73.665 76.7847 75.023 77.5648L110.156 97.8472C112.949 99.4652 117.485 99.4652 120.278 97.8472L155.228 77.5263C156.576 76.7462 157.26 75.7253 157.308 74.7045H157.328V74.6081Z" fill="url(#paint24_linear_336_251)"/>
<path d="M155.229 54.7107L120.096 34.4283C117.303 32.8104 112.767 32.8104 109.974 34.4283L75.0239 54.7493C72.231 56.3672 72.231 58.9772 75.0239 60.5951L110.157 80.8776C112.95 82.4955 117.486 82.4955 120.279 80.8776L155.229 60.5566C158.032 58.9483 158.032 56.3287 155.229 54.7107Z" fill="url(#paint25_radial_336_251)"/>
<path d="M155.229 59.5357L120.279 79.8566C117.486 81.4746 112.95 81.4746 110.157 79.8566L75.0243 59.5742C73.8494 58.9 73.1752 58.0429 72.9922 57.1665C72.7322 58.3896 73.4064 59.6609 75.0243 60.5951L110.157 80.8775C112.95 82.4955 117.486 82.4955 120.279 80.8775L155.229 60.5565C156.857 59.6224 157.531 58.3415 157.262 57.128C157.079 58.0044 156.404 58.8615 155.229 59.5357Z" fill="white"/>
<path d="M125.008 85.3747L123.342 86.3378V84.4213L125.008 83.4582V85.3747Z" fill="white"/>
<path d="M128.486 83.3718L126.829 84.3252V82.4087L128.486 81.4456V83.3718Z" fill="white"/>
<path d="M131.972 81.359L130.306 82.3221V80.3959L131.972 79.4424V81.359Z" fill="white"/>
<path d="M129.121 86.8967L127.465 87.8501V85.9336L129.121 84.9705V86.8967Z" fill="white"/>
<path d="M132.183 85.1248L130.526 86.0879V84.1618L132.183 83.2083V85.1248Z" fill="white"/>
<path d="M143.134 74.9163L141.468 75.8794V73.9533L143.134 72.9998V74.9163Z" fill="white"/>
<path d="M152.715 69.3784L151.049 70.3415V68.4249L152.715 67.4619V69.3784Z" fill="white"/>
<path d="M135.448 79.3464L133.782 80.3095V78.3929L135.448 77.4299V79.3464Z" fill="white"/>
<path d="M157.328 41.3933L157.318 24.5491L136.034 27.3902L120.095 18.1831C117.302 16.5652 112.766 16.5652 109.973 18.1831L107.488 19.7626L72.9331 24.3757V41.4126C72.9331 41.4222 72.9331 41.4318 72.9331 41.4415V41.5185H72.9427C72.9813 42.549 73.665 43.5699 75.023 44.35L110.156 64.6324C112.949 66.2503 117.485 66.2503 120.278 64.6324L155.228 44.3114C156.576 43.5313 157.26 42.5105 157.308 41.4896H157.328V41.3933Z" fill="url(#paint26_linear_336_251)"/>
<path d="M155.229 21.4959L120.096 1.21348C117.303 -0.404493 112.767 -0.404493 109.974 1.21348L75.0239 21.5344C72.231 23.1524 72.231 25.7623 75.0239 27.3803L110.157 47.6627C112.95 49.2807 117.486 49.2807 120.279 47.6627L155.229 27.3418C158.032 25.7238 158.032 23.1139 155.229 21.4959Z" fill="url(#paint27_radial_336_251)"/>
<path d="M155.229 21.4959L120.096 1.21348C117.303 -0.404493 112.767 -0.404493 109.974 1.21348L75.0239 21.5344C72.231 23.1524 72.231 25.7623 75.0239 27.3803L110.157 47.6627C112.95 49.2807 117.486 49.2807 120.279 47.6627L155.229 27.3418C158.032 25.7238 158.032 23.1139 155.229 21.4959Z" fill="url(#paint28_radial_336_251)"/>
<path d="M115.195 41.0944C113.904 41.0944 112.614 40.8055 111.612 40.2277L88.3348 26.7831C87.2946 26.1764 86.7168 25.3577 86.7168 24.4525C86.7168 23.5472 87.2946 22.7189 88.3348 22.1218L111.487 8.65798C113.5 7.49266 116.64 7.50229 118.652 8.65798L141.93 22.1026C142.97 22.7093 143.548 23.5279 143.548 24.4332C143.548 25.3385 142.97 26.1667 141.93 26.7638L118.778 40.2277C117.776 40.7959 116.486 41.0944 115.195 41.0944ZM115.07 8.69651C113.933 8.69651 112.807 8.94691 111.94 9.43808L88.7874 22.9115C88.0362 23.3449 87.6221 23.8939 87.6221 24.4525C87.6221 25.011 88.0362 25.56 88.7874 25.9934L112.065 39.4283C113.789 40.4203 116.591 40.4203 118.315 39.4283L141.468 25.9645C142.219 25.5311 142.633 24.9821 142.633 24.4236C142.633 23.865 142.219 23.316 141.468 22.8826L118.19 9.43808C117.333 8.94691 116.206 8.69651 115.07 8.69651Z" fill="#8B1E64"/>
<path d="M155.229 26.3208L120.279 46.6417C117.486 48.2597 112.95 48.2597 110.157 46.6417L75.0336 26.3593C73.8587 25.6851 73.1845 24.828 73.0015 23.9516C72.7415 25.1747 73.4156 26.446 75.0336 27.3802L110.167 47.6626C112.96 49.2805 117.496 49.2805 120.289 47.6626L155.239 27.3416C156.866 26.4075 157.54 25.1266 157.271 23.9131C157.078 24.7895 156.404 25.6466 155.229 26.3208Z" fill="white"/>
<path d="M125.008 52.1609L123.342 53.1143V51.1978L125.008 50.2347V52.1609Z" fill="white"/>
<path d="M128.486 50.1482L126.829 51.1112V49.1851L128.486 48.2316V50.1482Z" fill="white"/>
<path d="M131.972 48.1447L130.306 49.0981V47.1816L131.972 46.2185V48.1447Z" fill="white"/>
<path d="M129.121 53.673L127.465 54.6361V52.7099L129.121 51.7565V53.673Z" fill="white"/>
<path d="M132.183 51.9105L130.526 52.864V50.9475L132.183 49.9844V51.9105Z" fill="white"/>
<path d="M143.134 41.6924L141.468 42.6555V40.739L143.134 39.7759V41.6924Z" fill="white"/>
<path d="M152.715 36.1641L151.049 37.1271V35.201L152.715 34.2379V36.1641Z" fill="white"/>
<path d="M135.448 46.1319L133.782 47.095V45.1688L135.448 44.2154V46.1319Z" fill="white"/>
<defs>
<radialGradient id="paint0_radial_336_251" cx="0" cy="0" r="1" gradientUnits="userSpaceOnUse" gradientTransform="translate(-33.2267 112.562) scale(173.853 174.043)">
<stop stop-color="#42E8E0"/>
<stop offset="0.0157" stop-color="#40D8D7"/>
<stop offset="0.0607" stop-color="#3AAFC0"/>
<stop offset="0.1112" stop-color="#3589AC"/>
<stop offset="0.1662" stop-color="#30699A"/>
<stop offset="0.227" stop-color="#2C4D8B"/>
<stop offset="0.2957" stop-color="#29377F"/>
<stop offset="0.3758" stop-color="#272675"/>
<stop offset="0.475" stop-color="#251B6F"/>
<stop offset="0.614" stop-color="#24146B"/>
<stop offset="1" stop-color="#24126A"/>
</radialGradient>
<radialGradient id="paint1_radial_336_251" cx="0" cy="0" r="1" gradientUnits="userSpaceOnUse" gradientTransform="translate(77.7105 163.208) scale(308.087 308.422)">
<stop stop-color="#42E8E0"/>
<stop offset="0.1022" stop-color="#3CCACE"/>
<stop offset="0.3445" stop-color="#2F87A5"/>
<stop offset="0.564" stop-color="#255385"/>
<stop offset="0.7534" stop-color="#1E2D6E"/>
<stop offset="0.905" stop-color="#1A1660"/>
<stop offset="1" stop-color="#180D5B"/>
</radialGradient>
<linearGradient id="paint2_linear_336_251" x1="0.00436362" y1="88.3439" x2="220.947" y2="88.3439" gradientUnits="userSpaceOnUse">
<stop stop-color="#180D5B"/>
<stop offset="0.095" stop-color="#1A1660"/>
<stop offset="0.2466" stop-color="#1E2D6E"/>
<stop offset="0.436" stop-color="#255385"/>
<stop offset="0.6555" stop-color="#2F87A5"/>
<stop offset="0.8978" stop-color="#3CCACE"/>
<stop offset="1" stop-color="#42E8E0"/>
</linearGradient>
<radialGradient id="paint3_radial_336_251" cx="0" cy="0" r="1" gradientUnits="userSpaceOnUse" gradientTransform="translate(-2.18523 110.39) scale(88.9426 89.0393)">
<stop stop-color="#42E8E0"/>
<stop offset="0.1022" stop-color="#3CCACE"/>
<stop offset="0.3445" stop-color="#2F87A5"/>
<stop offset="0.564" stop-color="#255385"/>
<stop offset="0.7534" stop-color="#1E2D6E"/>
<stop offset="0.905" stop-color="#1A1660"/>
<stop offset="1" stop-color="#180D5B"/>
</radialGradient>
<radialGradient id="paint4_radial_336_251" cx="0" cy="0" r="1" gradientUnits="userSpaceOnUse" gradientTransform="translate(2.79639 88.417) scale(183.557 183.757)">
<stop stop-color="#42E8E0"/>
<stop offset="0.1022" stop-color="#3CCACE"/>
<stop offset="0.3445" stop-color="#2F87A5"/>
<stop offset="0.564" stop-color="#255385"/>
<stop offset="0.7534" stop-color="#1E2D6E"/>
<stop offset="0.905" stop-color="#1A1660"/>
<stop offset="1" stop-color="#180D5B"/>
</radialGradient>
<radialGradient id="paint5_radial_336_251" cx="0" cy="0" r="1" gradientUnits="userSpaceOnUse" gradientTransform="translate(17.3582 97.2404) scale(150.218 150.382)">
<stop stop-color="#42E8E0"/>
<stop offset="0.1022" stop-color="#3CCACE"/>
<stop offset="0.3445" stop-color="#2F87A5"/>
<stop offset="0.564" stop-color="#255385"/>
<stop offset="0.7534" stop-color="#1E2D6E"/>
<stop offset="0.905" stop-color="#1A1660"/>
<stop offset="1" stop-color="#180D5B"/>
</radialGradient>
<radialGradient id="paint6_radial_336_251" cx="0" cy="0" r="1" gradientUnits="userSpaceOnUse" gradientTransform="translate(-2.18521 98.0077) scale(212.338 212.569)">
<stop stop-color="#42E8E0"/>
<stop offset="0.1022" stop-color="#3CCACE"/>
<stop offset="0.3445" stop-color="#2F87A5"/>
<stop offset="0.564" stop-color="#255385"/>
<stop offset="0.7534" stop-color="#1E2D6E"/>
<stop offset="0.905" stop-color="#1A1660"/>
<stop offset="1" stop-color="#180D5B"/>
</radialGradient>
<radialGradient id="paint7_radial_336_251" cx="0" cy="0" r="1" gradientUnits="userSpaceOnUse" gradientTransform="translate(-2.18754 97.2389) scale(283.689 283.997)">
<stop stop-color="#42E8E0"/>
<stop offset="0.1022" stop-color="#3CCACE"/>
<stop offset="0.3445" stop-color="#2F87A5"/>
<stop offset="0.564" stop-color="#255385"/>
<stop offset="0.7534" stop-color="#1E2D6E"/>
<stop offset="0.905" stop-color="#1A1660"/>
<stop offset="1" stop-color="#180D5B"/>
</radialGradient>
<linearGradient id="paint8_linear_336_251" x1="133.821" y1="132.781" x2="194.244" y2="132.781" gradientUnits="userSpaceOnUse">
<stop stop-color="#42E8E0"/>
<stop offset="0.1022" stop-color="#3CCACE"/>
<stop offset="0.3445" stop-color="#2F87A5"/>
<stop offset="0.564" stop-color="#255385"/>
<stop offset="0.7534" stop-color="#1E2D6E"/>
<stop offset="0.905" stop-color="#1A1660"/>
<stop offset="1" stop-color="#180D5B"/>
</linearGradient>
<linearGradient id="paint9_linear_336_251" x1="177.389" y1="132.782" x2="207.601" y2="132.782" gradientUnits="userSpaceOnUse">
<stop stop-color="#2B237C"/>
<stop offset="1" stop-color="#180D5B"/>
</linearGradient>
<linearGradient id="paint10_linear_336_251" x1="147.177" y1="126.1" x2="207.605" y2="126.1" gradientUnits="userSpaceOnUse">
<stop stop-color="#42E8E0"/>
<stop offset="0.1022" stop-color="#3CCACE"/>
<stop offset="0.3445" stop-color="#2F87A5"/>
<stop offset="0.564" stop-color="#255385"/>
<stop offset="0.7534" stop-color="#1E2D6E"/>
<stop offset="0.905" stop-color="#1A1660"/>
<stop offset="1" stop-color="#180D5B"/>
</linearGradient>
<linearGradient id="paint11_linear_336_251" x1="147.178" y1="126.101" x2="178.019" y2="126.101" gradientUnits="userSpaceOnUse">
<stop stop-color="#42E8E0"/>
<stop offset="0.1022" stop-color="#3CCACE"/>
<stop offset="0.3445" stop-color="#2F87A5"/>
<stop offset="0.564" stop-color="#255385"/>
<stop offset="0.7534" stop-color="#1E2D6E"/>
<stop offset="0.905" stop-color="#1A1660"/>
<stop offset="1" stop-color="#180D5B"/>
</linearGradient>
<linearGradient id="paint12_linear_336_251" x1="155.396" y1="143.702" x2="206.007" y2="110.658" gradientUnits="userSpaceOnUse">
<stop stop-color="#42E8E0"/>
<stop offset="0.1022" stop-color="#3CCACE"/>
<stop offset="0.3445" stop-color="#2F87A5"/>
<stop offset="0.564" stop-color="#255385"/>
<stop offset="0.7534" stop-color="#1E2D6E"/>
<stop offset="0.905" stop-color="#1A1660"/>
<stop offset="1" stop-color="#180D5B"/>
</linearGradient>
<linearGradient id="paint13_linear_336_251" x1="198.81" y1="113.723" x2="247.497" y2="113.723" gradientUnits="userSpaceOnUse">
<stop stop-color="#0B0244"/>
<stop offset="1" stop-color="#0B0244"/>
</linearGradient>
<linearGradient id="paint14_linear_336_251" x1="179.584" y1="106.334" x2="240.007" y2="106.334" gradientUnits="userSpaceOnUse">
<stop stop-color="#42E8E0"/>
<stop offset="0.1022" stop-color="#3CCACE"/>
<stop offset="0.3445" stop-color="#2F87A5"/>
<stop offset="0.564" stop-color="#255385"/>
<stop offset="0.7534" stop-color="#1E2D6E"/>
<stop offset="0.905" stop-color="#1A1660"/>
<stop offset="1" stop-color="#180D5B"/>
</linearGradient>
<linearGradient id="paint15_linear_336_251" x1="223.152" y1="106.334" x2="253.363" y2="106.334" gradientUnits="userSpaceOnUse">
<stop stop-color="#2B237C"/>
<stop offset="1" stop-color="#180D5B"/>
</linearGradient>
<linearGradient id="paint16_linear_336_251" x1="192.94" y1="99.653" x2="253.368" y2="99.653" gradientUnits="userSpaceOnUse">
<stop stop-color="#42E8E0"/>
<stop offset="0.1022" stop-color="#3CCACE"/>
<stop offset="0.3445" stop-color="#2F87A5"/>
<stop offset="0.564" stop-color="#255385"/>
<stop offset="0.7534" stop-color="#1E2D6E"/>
<stop offset="0.905" stop-color="#1A1660"/>
<stop offset="1" stop-color="#180D5B"/>
</linearGradient>
<linearGradient id="paint17_linear_336_251" x1="192.94" y1="99.653" x2="223.781" y2="99.653" gradientUnits="userSpaceOnUse">
<stop stop-color="#42E8E0"/>
<stop offset="0.1022" stop-color="#3CCACE"/>
<stop offset="0.3445" stop-color="#2F87A5"/>
<stop offset="0.564" stop-color="#255385"/>
<stop offset="0.7534" stop-color="#1E2D6E"/>
<stop offset="0.905" stop-color="#1A1660"/>
<stop offset="1" stop-color="#180D5B"/>
</linearGradient>
<linearGradient id="paint18_linear_336_251" x1="201.159" y1="117.256" x2="251.77" y2="84.2111" gradientUnits="userSpaceOnUse">
<stop stop-color="#42E8E0"/>
<stop offset="0.1022" stop-color="#3CCACE"/>
<stop offset="0.3445" stop-color="#2F87A5"/>
<stop offset="0.564" stop-color="#255385"/>
<stop offset="0.7534" stop-color="#1E2D6E"/>
<stop offset="0.905" stop-color="#1A1660"/>
<stop offset="1" stop-color="#180D5B"/>
</linearGradient>
<linearGradient id="paint19_linear_336_251" x1="88.0595" y1="159.228" x2="148.483" y2="159.228" gradientUnits="userSpaceOnUse">
<stop stop-color="#42E8E0"/>
<stop offset="0.1022" stop-color="#3CCACE"/>
<stop offset="0.3445" stop-color="#2F87A5"/>
<stop offset="0.564" stop-color="#255385"/>
<stop offset="0.7534" stop-color="#1E2D6E"/>
<stop offset="0.905" stop-color="#1A1660"/>
<stop offset="1" stop-color="#180D5B"/>
</linearGradient>
<linearGradient id="paint20_linear_336_251" x1="131.627" y1="159.226" x2="161.839" y2="159.226" gradientUnits="userSpaceOnUse">
<stop stop-color="#2B237C"/>
<stop offset="1" stop-color="#180D5B"/>
</linearGradient>
<linearGradient id="paint21_linear_336_251" x1="101.415" y1="152.545" x2="161.843" y2="152.545" gradientUnits="userSpaceOnUse">
<stop stop-color="#42E8E0"/>
<stop offset="0.1022" stop-color="#3CCACE"/>
<stop offset="0.3445" stop-color="#2F87A5"/>
<stop offset="0.564" stop-color="#255385"/>
<stop offset="0.7534" stop-color="#1E2D6E"/>
<stop offset="0.905" stop-color="#1A1660"/>
<stop offset="1" stop-color="#180D5B"/>
</linearGradient>
<linearGradient id="paint22_linear_336_251" x1="101.416" y1="152.546" x2="132.257" y2="152.546" gradientUnits="userSpaceOnUse">
<stop stop-color="#42E8E0"/>
<stop offset="0.1022" stop-color="#3CCACE"/>
<stop offset="0.3445" stop-color="#2F87A5"/>
<stop offset="0.564" stop-color="#255385"/>
<stop offset="0.7534" stop-color="#1E2D6E"/>
<stop offset="0.905" stop-color="#1A1660"/>
<stop offset="1" stop-color="#180D5B"/>
</linearGradient>
<linearGradient id="paint23_linear_336_251" x1="109.635" y1="170.147" x2="160.246" y2="137.103" gradientUnits="userSpaceOnUse">
<stop stop-color="#42E8E0"/>
<stop offset="0.1022" stop-color="#3CCACE"/>
<stop offset="0.3445" stop-color="#2F87A5"/>
<stop offset="0.564" stop-color="#255385"/>
<stop offset="0.7534" stop-color="#1E2D6E"/>
<stop offset="0.905" stop-color="#1A1660"/>
<stop offset="1" stop-color="#180D5B"/>
</linearGradient>
<linearGradient id="paint24_linear_336_251" x1="67.8584" y1="74.6268" x2="127.372" y2="74.6268" gradientUnits="userSpaceOnUse">
<stop stop-color="#01C8EF"/>
<stop offset="0.1297" stop-color="#04B1DD"/>
<stop offset="0.5466" stop-color="#0E6BA7"/>
<stop offset="0.8476" stop-color="#154085"/>
<stop offset="1" stop-color="#172F78"/>
</linearGradient>
<radialGradient id="paint25_radial_336_251" cx="0" cy="0" r="1" gradientUnits="userSpaceOnUse" gradientTransform="translate(57.3063 29.9998) scale(132.905 132.905)">
<stop stop-color="#01C8EF"/>
<stop offset="0.1396" stop-color="#03BAE4"/>
<stop offset="0.4033" stop-color="#0895C8"/>
<stop offset="0.76" stop-color="#115A9A"/>
<stop offset="1" stop-color="#172F78"/>
</radialGradient>
<linearGradient id="paint26_linear_336_251" x1="67.8584" y1="41.4073" x2="127.372" y2="41.4073" gradientUnits="userSpaceOnUse">
<stop stop-color="#01C8EF"/>
<stop offset="0.1297" stop-color="#04B1DD"/>
<stop offset="0.5466" stop-color="#0E6BA7"/>
<stop offset="0.8476" stop-color="#154085"/>
<stop offset="1" stop-color="#172F78"/>
</linearGradient>
<radialGradient id="paint27_radial_336_251" cx="0" cy="0" r="1" gradientUnits="userSpaceOnUse" gradientTransform="translate(57.3063 -3.21976) scale(132.905 132.905)">
<stop stop-color="#01C8EF"/>
<stop offset="0.1396" stop-color="#03BAE4"/>
<stop offset="0.4033" stop-color="#0895C8"/>
<stop offset="0.76" stop-color="#115A9A"/>
<stop offset="1" stop-color="#172F78"/>
</radialGradient>
<radialGradient id="paint28_radial_336_251" cx="0" cy="0" r="1" gradientUnits="userSpaceOnUse" gradientTransform="translate(69.034 4.7889) scale(91.3771 91.3771)">
<stop stop-color="#F9636B"/>
<stop offset="1" stop-color="#B6246E"/>
</radialGradient>
</defs>
</svg>
