<svg width="84" height="84" viewBox="0 0 84 84" xmlns="http://www.w3.org/2000/svg"><path fill-rule="evenodd" clip-rule="evenodd" d="M42.0001 69.9998C57.4641 69.9998 70.0001 57.4637 70.0001 41.9998C70.0001 26.5358 57.4641 13.9998 42.0001 13.9998C26.5361 13.9998 14.0001 26.5358 14.0001 41.9998C14.0001 57.4637 26.5361 69.9998 42.0001 69.9998ZM42.0001 76.9998C61.3301 76.9998 77.0001 61.3297 77.0001 41.9998C77.0001 22.6698 61.3301 6.99976 42.0001 6.99976C22.6702 6.99976 7.00012 22.6698 7.00012 41.9998C7.00012 61.3297 22.6702 76.9998 42.0001 76.9998Z" fill="#B5B5B5"></path><path d="M38.5001 24.5C38.5001 22.567 40.0671 21 42.0001 21C43.9331 21 45.5001 22.567 45.5001 24.5C51.2991 24.5 56.0001 29.201 56.0001 35C56.0001 36.933 54.4331 38.5 52.5001 38.5C50.5671 38.5 49.0001 36.933 49.0001 35C49.0001 33.067 47.4331 31.5 45.5001 31.5H37.6021C36.1651 31.5 35.0001 32.6649 35.0001 34.102C35.0001 35.2219 35.7168 36.2162 36.7793 36.5704L49.4346 40.7888C53.3554 42.0958 56.0001 45.7651 56.0001 49.898C56.0001 55.2011 51.7012 59.5 46.3982 59.5H45.5001C45.5001 61.433 43.9331 63 42.0001 63C40.0671 63 38.5001 61.433 38.5001 59.5C32.7011 59.5 28.0001 54.799 28.0001 49C28.0001 47.067 29.5671 45.5 31.5001 45.5C33.4331 45.5 35.0001 47.067 35.0001 49C35.0001 50.933 36.5671 52.5 38.5001 52.5H46.3982C47.8352 52.5 49.0001 51.3351 49.0001 49.898C49.0001 48.7781 48.2835 47.7838 47.221 47.4296L34.5657 43.2112C30.6448 41.9042 28.0001 38.2349 28.0001 34.102C28.0001 28.7989 32.2991 24.5 37.6021 24.5H38.5001Z" fill="#B5B5B5"></path></svg>