<svg width="82" height="82" viewBox="0 0 82 82" fill="none" xmlns="http://www.w3.org/2000/svg">
<path fill-rule="evenodd" clip-rule="evenodd" d="M59.3955 40.5669C65.9194 40.5669 71.208 35.2783 71.208 28.7544C71.208 22.2305 65.9194 16.9419 59.3955 16.9419C52.8716 16.9419 47.583 22.2305 47.583 28.7544C47.583 35.2783 52.8716 40.5669 59.3955 40.5669ZM59.3955 47.3169C69.6473 47.3169 77.958 39.0062 77.958 28.7544C77.958 18.5026 69.6473 10.1919 59.3955 10.1919C49.1437 10.1919 40.833 18.5026 40.833 28.7544C40.833 39.0062 49.1437 47.3169 59.3955 47.3169ZM15.5205 33.8168C18.3165 33.8168 20.583 31.5502 20.583 28.7543C20.583 25.9583 18.3165 23.6918 15.5205 23.6918C12.7246 23.6918 10.458 25.9583 10.458 28.7543C10.458 31.5502 12.7246 33.8168 15.5205 33.8168ZM15.5205 40.5668C22.0444 40.5668 27.333 35.2781 27.333 28.7543C27.333 22.2304 22.0444 16.9418 15.5205 16.9418C8.99664 16.9418 3.70801 22.2304 3.70801 28.7543C3.70801 35.2781 8.99664 40.5668 15.5205 40.5668ZM37.458 57.442C37.458 61.1699 34.4359 64.192 30.708 64.192C26.9801 64.192 23.958 61.1699 23.958 57.442C23.958 53.7141 26.9801 50.692 30.708 50.692C34.4359 50.692 37.458 53.7141 37.458 57.442ZM44.208 57.442C44.208 64.8979 38.1638 70.942 30.708 70.942C23.2522 70.942 17.208 64.8979 17.208 57.442C17.208 49.9862 23.2522 43.942 30.708 43.942C38.1638 43.942 44.208 49.9862 44.208 57.442Z" fill="url(#paint0_linear_151_698)"/>
<defs>
<linearGradient id="paint0_linear_151_698" x1="79.1003" y1="8.02547" x2="-8.89476" y2="20.4764" gradientUnits="userSpaceOnUse">
<stop stop-color="#0FBEB2"/>
<stop offset="1" stop-color="#1C80C8"/>
</linearGradient>
</defs>
</svg>
