<svg width="81" height="81" viewBox="0 0 81 81" xmlns="http://www.w3.org/2000/svg"><path fill-rule="evenodd" clip-rule="evenodd" d="M64.125 67.0747C69.9476 65.5761 74.25 60.2905 74.25 54V20.25C74.25 12.7942 68.2058 6.75 60.75 6.75H20.25C12.7942 6.75 6.75 12.7942 6.75 20.25V54C6.75 60.2905 11.0524 65.5761 16.875 67.0747V70.875C16.875 72.739 18.386 74.25 20.25 74.25C22.114 74.25 23.625 72.739 23.625 70.875V67.5H57.375V70.875C57.375 72.739 58.886 74.25 60.75 74.25C62.614 74.25 64.125 72.739 64.125 70.875V67.0747ZM60.75 13.5H20.25C16.5221 13.5 13.5 16.5221 13.5 20.25V54C13.5 57.7279 16.5221 60.75 20.25 60.75H60.75C64.4779 60.75 67.5 57.7279 67.5 54V20.25C67.5 16.5221 64.4779 13.5 60.75 13.5Z" fill="#B5B5B5"></path><path fill-rule="evenodd" clip-rule="evenodd" d="M37.125 23.625C37.125 21.761 38.636 20.25 40.5 20.25C42.364 20.25 43.875 21.761 43.875 23.625V27.5761C46.7519 28.593 49.032 30.8731 50.0489 33.75H54C55.864 33.75 57.375 35.261 57.375 37.125C57.375 38.989 55.864 40.5 54 40.5H50.0489C49.032 43.3769 46.7519 45.657 43.875 46.6739V50.625C43.875 52.489 42.364 54 40.5 54C38.636 54 37.125 52.489 37.125 50.625V46.6739C34.2481 45.657 31.968 43.3769 30.9511 40.5H27C25.136 40.5 23.625 38.989 23.625 37.125C23.625 35.261 25.136 33.75 27 33.75H30.9511C31.968 30.8731 34.2481 28.593 37.125 27.5761V23.625ZM37.125 37.125C37.125 38.989 38.636 40.5 40.5 40.5C42.364 40.5 43.875 38.989 43.875 37.125C43.875 35.261 42.364 33.75 40.5 33.75C38.636 33.75 37.125 35.261 37.125 37.125Z" fill="#B5B5B5"></path></svg>