<svg width="85" height="85" viewBox="0 0 85 85" xmlns="http://www.w3.org/2000/svg"><path fill-rule="evenodd" clip-rule="evenodd" d="M48.1153 19.1294L45.322 15.4456C43.9047 13.5765 41.0949 13.5765 39.6777 15.4456L36.8844 19.1294C35.2605 21.2711 32.6075 22.37 29.9449 22.0039L25.3649 21.3742C23.0411 21.0547 21.0543 23.0415 21.3738 25.3652L22.0035 29.9453C22.3696 32.6079 21.2707 35.2609 19.1291 36.8848L15.4452 39.6781C13.5762 41.0953 13.5762 43.9051 15.4452 45.3223L19.1291 48.1156C21.2707 49.7395 22.3696 52.3925 22.0035 55.0551L21.3738 59.6352C21.0543 61.9589 23.0411 63.9458 25.3649 63.6263L29.9449 62.9965C32.6075 62.6305 35.2605 63.7294 36.8844 65.871L39.6777 69.5549C41.0949 71.4239 43.9047 71.4239 45.322 69.5549L48.1153 65.871C49.7392 63.7294 52.3922 62.6305 55.0548 62.9965L59.6348 63.6263C61.9586 63.9458 63.9454 61.9589 63.6259 59.6352L62.9962 55.0551C62.6301 52.3925 63.729 49.7395 65.8706 48.1156L69.5545 45.3223C71.4235 43.9051 71.4235 41.0953 69.5545 39.6781L65.8706 36.8848C63.729 35.2609 62.6301 32.6079 62.9962 29.9453L63.6259 25.3652C63.9454 23.0415 61.9586 21.0547 59.6348 21.3742L55.0548 22.0039C52.3921 22.37 49.7391 21.2711 48.1153 19.1294ZM50.9662 11.1658C46.7145 5.55866 38.2851 5.55866 34.0335 11.1658L31.2402 14.8497C31.1629 14.9517 31.0365 15.004 30.9097 14.9866L26.3297 14.3568C19.3585 13.3983 13.398 19.3588 14.3565 26.3301L14.9862 30.9101C15.0036 31.0369 14.9513 31.1632 14.8493 31.2406L11.1655 34.0339C5.55829 38.2855 5.55829 46.7149 11.1655 50.9666L14.8493 53.7599C14.9513 53.8372 15.0036 53.9635 14.9862 54.0903L14.3565 58.6704C13.398 65.6416 19.3585 71.6021 26.3297 70.6436L30.9097 70.0139C31.0365 69.9964 31.1629 70.0488 31.2402 70.1507L34.0335 73.8346C38.2851 79.4418 46.7145 79.4418 50.9662 73.8346L53.7595 70.1507C53.8368 70.0488 53.9631 69.9964 54.0899 70.0139L58.67 70.6436C65.6412 71.6021 71.6017 65.6416 70.6432 58.6704L70.0135 54.0903C69.9961 53.9635 70.0484 53.8372 70.1504 53.7599L73.8342 50.9666C79.4414 46.7149 79.4414 38.2855 73.8342 34.0339L70.1504 31.2406C70.0484 31.1632 69.9961 31.0369 70.0135 30.9101L70.6432 26.3301C71.6017 19.3588 65.6412 13.3983 58.67 14.3568L54.0899 14.9866C53.9631 15.004 53.8368 14.9517 53.7595 14.8497L50.9662 11.1658Z" fill="#B5B5B5"></path><path d="M52.0877 37.921L37.921 52.0877C36.5379 53.4708 34.2954 53.4708 32.9123 52.0877C31.5292 50.7046 31.5292 48.4621 32.9123 47.079L47.079 32.9123C48.4621 31.5292 50.7046 31.5292 52.0877 32.9123C53.4708 34.2954 53.4708 36.5379 52.0877 37.921Z" fill="#B5B5B5"></path><path d="M38.9583 35.4167C38.9583 37.3727 37.3727 38.9583 35.4167 38.9583C33.4607 38.9583 31.875 37.3727 31.875 35.4167C31.875 33.4607 33.4607 31.875 35.4167 31.875C37.3727 31.875 38.9583 33.4607 38.9583 35.4167Z" fill="#B5B5B5"></path><path d="M46.0417 49.5833C46.0417 51.5393 47.6273 53.125 49.5833 53.125C51.5393 53.125 53.125 51.5393 53.125 49.5833C53.125 47.6273 51.5393 46.0417 49.5833 46.0417C47.6273 46.0417 46.0417 47.6273 46.0417 49.5833Z" fill="#B5B5B5"></path></svg>