<svg width="123" height="123" viewBox="0 0 123 123" xmlns="http://www.w3.org/2000/svg"><path fill-rule="evenodd" clip-rule="evenodd" d="M102.5 37.0643V40.9998C102.5 43.8302 100.205 46.1248 97.375 46.1248H25.625C22.7945 46.1248 20.5 43.8302 20.5 40.9998V37.0643C20.5 34.801 21.9845 32.8057 24.1523 32.1554L60.0273 21.3929C60.988 21.1047 62.012 21.1047 62.9727 21.3929L98.8477 32.1554C101.015 32.8057 102.5 34.801 102.5 37.0643ZM10.25 37.0643C10.25 30.2745 14.7036 24.2887 21.207 22.3377L57.082 11.5752C59.9639 10.7106 63.0361 10.7106 65.918 11.5752L101.793 22.3377C108.296 24.2887 112.75 30.2745 112.75 37.0643V40.9998C112.75 49.4912 105.866 56.3748 97.375 56.3748V81.9999C105.866 81.9999 112.75 88.8835 112.75 97.3749C112.75 105.866 105.866 112.75 97.375 112.75H25.625C17.1336 112.75 10.25 105.866 10.25 97.3749C10.25 88.8835 17.1336 81.9999 25.625 81.9999L25.625 56.3748C17.1336 56.3748 10.25 49.4912 10.25 40.9998V37.0643ZM56.375 56.3748V81.9999H66.625V56.3748H56.375ZM46.125 56.3749V81.9999H35.875V56.3749H46.125ZM87.125 81.9999H76.875V56.3749H87.125V81.9999ZM97.375 92.2499H66.625H56.375H25.625C22.7945 92.2499 20.5 94.5444 20.5 97.3749C20.5 100.205 22.7945 102.5 25.625 102.5H97.375C100.205 102.5 102.5 100.205 102.5 97.3749C102.5 94.5444 100.205 92.2499 97.375 92.2499Z"></path></svg>