<svg width="81" height="82" viewBox="0 0 81 82" fill="none" xmlns="http://www.w3.org/2000/svg">
<path fill-rule="evenodd" clip-rule="evenodd" d="M67.5 24.4752V27.0669C67.5 28.9308 65.989 30.4419 64.125 30.4419H16.875C15.011 30.4419 13.5 28.9308 13.5 27.0669V24.4752C13.5 22.9848 14.4776 21.6708 15.9052 21.2425L39.5302 14.155C40.1628 13.9653 40.8372 13.9653 41.4698 14.155L65.0948 21.2425C66.5224 21.6708 67.5 22.9848 67.5 24.4752ZM6.75 24.4752C6.75 20.0039 9.68289 16.062 13.9656 14.7772L37.5906 7.6897C39.4884 7.12036 41.5116 7.12036 43.4094 7.6897L67.0344 14.7772C71.3171 16.062 74.25 20.0039 74.25 24.4752V27.0669C74.25 32.6588 69.7169 37.1919 64.125 37.1919V54.0669C69.7169 54.0669 74.25 58.6 74.25 64.1919C74.25 69.7838 69.7169 74.3169 64.125 74.3169H16.875C11.2831 74.3169 6.75 69.7838 6.75 64.1919C6.75 58.6 11.2831 54.0669 16.875 54.0669L16.875 37.1919C11.2831 37.1919 6.75 32.6588 6.75 27.0669V24.4752ZM37.125 37.1919V54.0669H43.875V37.1919H37.125ZM30.375 37.1919V54.0669H23.625V37.1919H30.375ZM57.375 37.1919V54.0669H50.625V37.1919H57.375ZM67.5 64.1919C67.5 62.3279 65.989 60.8169 64.125 60.8169H43.875H37.125H16.875C15.011 60.8169 13.5 62.3279 13.5 64.1919C13.5 66.0559 15.011 67.5669 16.875 67.5669H64.125C65.989 67.5669 67.5 66.0559 67.5 64.1919Z" fill="url(#paint0_linear_151_682)"/>
<defs>
<linearGradient id="paint0_linear_151_682" x1="75.2885" y1="4.87146" x2="-5.2153" y2="14.2533" gradientUnits="userSpaceOnUse">
<stop stop-color="#0FBEB2"/>
<stop offset="1" stop-color="#1C80C8"/>
</linearGradient>
</defs>
</svg>
