<svg width="82" height="82" viewBox="0 0 82 82" fill="none" xmlns="http://www.w3.org/2000/svg">
<path fill-rule="evenodd" clip-rule="evenodd" d="M14.5439 63.7617C14.5439 65.6257 16.055 67.1367 17.9189 67.1367C19.7829 67.1367 21.2939 65.6257 21.2939 63.7617C21.2939 61.8978 19.7829 60.3867 17.9189 60.3867C16.055 60.3867 14.5439 61.8978 14.5439 63.7617ZM7.79394 63.7617C7.79394 69.3536 12.3271 73.8867 17.9189 73.8867C23.5108 73.8867 28.0439 69.3536 28.0439 63.7617C28.0439 58.1698 23.5108 53.6367 17.9189 53.6367C12.3271 53.6367 7.79395 58.1698 7.79394 63.7617Z" fill="url(#paint0_linear_151_690)"/>
<path fill-rule="evenodd" clip-rule="evenodd" d="M68.5439 51.9492C68.5439 47.2893 64.7663 43.5117 60.1064 43.5117L22.9814 43.5117C14.5936 43.5117 7.79394 36.712 7.79394 28.3242C7.79395 19.9364 14.5936 13.1367 22.9814 13.1367L48.2939 13.1367C50.1579 13.1367 51.6689 14.6478 51.6689 16.5117C51.6689 18.3757 50.1579 19.8867 48.2939 19.8867L22.9814 19.8867C18.3215 19.8867 14.5439 23.6643 14.5439 28.3242C14.5439 32.9841 18.3215 36.7617 22.9814 36.7617L60.1064 36.7617C68.4943 36.7617 75.2939 43.5614 75.2939 51.9492C75.2939 60.337 68.4943 67.1367 60.1064 67.1367L38.1689 67.1367C36.305 67.1367 34.7939 65.6257 34.7939 63.7617C34.7939 61.8978 36.305 60.3867 38.1689 60.3867L60.1064 60.3867C64.7663 60.3867 68.5439 56.6091 68.5439 51.9492Z" fill="url(#paint1_linear_151_690)"/>
<path d="M73.6713 13.5964C75.9038 14.8987 75.9038 18.1246 73.6713 19.4269L63.4944 25.3634C61.2444 26.6759 58.4188 25.0529 58.4188 22.4482L58.4188 10.5752C58.4188 7.97036 61.2444 6.34742 63.4944 7.6599L73.6713 13.5964Z" fill="url(#paint2_linear_151_690)"/>
<defs>
<linearGradient id="paint0_linear_151_690" x1="28.7661" y1="74.1983" x2="25.9696" y2="50.0429" gradientUnits="userSpaceOnUse">
<stop stop-color="#0FBEB2"/>
<stop offset="1" stop-color="#1C80C8"/>
</linearGradient>
<linearGradient id="paint1_linear_151_690" x1="77.7011" y1="67.9675" x2="71.7068" y2="3.24496" gradientUnits="userSpaceOnUse">
<stop stop-color="#0FBEB2"/>
<stop offset="1" stop-color="#1C80C8"/>
</linearGradient>
<linearGradient id="paint2_linear_151_690" x1="75.9493" y1="26.1149" x2="73.1247" y2="3.95024" gradientUnits="userSpaceOnUse">
<stop stop-color="#0FBEB2"/>
<stop offset="1" stop-color="#1C80C8"/>
</linearGradient>
</defs>
</svg>
