<svg width="20" height="20" viewBox="0 0 20 20" fill="none" xmlns="http://www.w3.org/2000/svg"><path fill-rule="evenodd" clip-rule="evenodd" d="M15.8334 4.16667H4.16671C3.24623 4.16667 2.50004 4.91286 2.50004 5.83333V14.1667C2.50004 15.0871 3.24623 15.8333 4.16671 15.8333H15.8334C16.7538 15.8333 17.5 15.0871 17.5 14.1667V5.83333C17.5 4.91286 16.7538 4.16667 15.8334 4.16667ZM4.16671 2.5C2.32576 2.5 0.833374 3.99238 0.833374 5.83333V14.1667C0.833374 16.0076 2.32576 17.5 4.16671 17.5H15.8334C17.6743 17.5 19.1667 16.0076 19.1667 14.1667V5.83333C19.1667 3.99238 17.6743 2.5 15.8334 2.5H4.16671Z" fill="#CCCCCC"></path><path fill-rule="evenodd" clip-rule="evenodd" d="M10.8334 10C10.8334 7.69882 12.6989 5.83334 15 5.83334H18.3334C18.7936 5.83334 19.1667 6.20644 19.1667 6.66668C19.1667 7.12691 18.7936 7.50001 18.3334 7.50001H15C13.6193 7.50001 12.5 8.6193 12.5 10C12.5 11.3807 13.6193 12.5 15 12.5H18.3334C18.7936 12.5 19.1667 12.8731 19.1667 13.3333C19.1667 13.7936 18.7936 14.1667 18.3334 14.1667H15C12.6989 14.1667 10.8334 12.3012 10.8334 10Z" fill="#CCCCCC"></path><path d="M15.8333 9.99999C15.8333 10.4602 15.4602 10.8333 15 10.8333C14.5397 10.8333 14.1666 10.4602 14.1666 9.99999C14.1666 9.53975 14.5397 9.16666 15 9.16666C15.4602 9.16666 15.8333 9.53975 15.8333 9.99999Z" fill="#CCCCCC"></path></svg>